{"glyphs":{"0":{"ha":381,"x_min":0,"x_max":0,"o":"m 190 -10 b 307 22 243 -10 286 1 b 347 557 340 57 347 78 b 304 1088 347 1039 338 1053 b 190 1121 282 1110 240 1121 b 76 1088 139 1121 99 1110 b 33 557 42 1053 33 1039 b 75 24 33 78 40 58 b 190 -10 97 1 138 -10 z m 190 108 b 163 117 178 108 168 111 b 149 557 150 129 149 136 b 164 996 149 976 151 983 b 190 1003 169 1000 181 1003 b 218 994 201 1003 213 1000 b 231 557 229 982 231 976 b 218 117 231 136 229 129 b 190 108 213 111 201 108 z "},"1":{"ha":322,"x_min":0,"x_max":0,"o":"m 186 -1 b 265 -1 213 -4 239 -4 b 282 17 278 0 282 4 l 285 1094 b 268 1111 285 1107 281 1111 l 199 1111 b 179 1104 190 1111 186 1110 l 33 983 b 31 960 24 975 24 969 l 76 900 b 99 897 83 890 89 889 l 163 950 b 171 946 169 956 171 954 b 169 17 171 756 171 226 b 186 -1 169 4 174 0 z "},"2":{"ha":346,"x_min":0,"x_max":0,"o":"m 50 0 l 310 0 b 326 17 322 0 326 4 l 326 100 b 310 117 326 113 322 117 l 161 114 b 150 125 153 114 150 117 b 190 385 153 331 154 336 b 224 426 200 397 211 413 l 254 464 b 325 825 321 546 324 556 b 283 1093 326 1035 321 1058 b 174 1122 264 1113 225 1122 b 64 1092 122 1122 83 1113 b 15 711 24 1053 22 1025 b 32 694 15 699 19 694 l 114 694 b 131 711 126 694 131 699 b 149 999 138 971 136 988 b 172 1004 153 1001 163 1004 b 196 997 183 1004 192 1001 b 207 819 208 986 207 967 b 179 579 207 629 207 622 b 146 536 174 569 160 554 b 108 494 132 522 118 506 b 33 196 33 404 33 367 l 33 17 b 50 0 33 4 38 0 z "},"3":{"ha":353,"x_min":0,"x_max":0,"o":"m 175 -14 b 283 15 222 -14 264 -6 b 329 319 315 46 329 88 b 293 569 328 500 322 531 b 268 601 275 592 268 592 b 294 640 268 611 278 617 b 326 856 317 671 325 706 b 288 1090 328 1019 315 1063 b 175 1122 267 1111 228 1122 b 67 1092 124 1122 86 1113 b 22 760 33 1058 25 1029 b 38 743 21 747 25 743 l 124 743 b 135 754 132 743 135 746 b 151 997 139 975 142 988 b 175 1004 156 1001 164 1004 b 197 997 183 1004 193 1001 b 213 850 207 988 211 967 b 192 658 214 704 207 676 b 136 639 178 643 164 639 l 92 639 b 75 622 79 639 75 635 l 75 539 b 92 522 75 526 79 522 l 146 522 b 196 508 169 522 183 521 b 214 325 210 496 215 472 b 201 114 213 136 210 122 b 175 104 194 107 186 104 b 151 113 164 104 156 107 b 136 406 143 121 140 136 b 125 417 136 414 133 417 l 39 417 b 22 400 26 417 22 413 b 68 15 28 82 35 47 b 175 -14 88 -6 121 -14 z "},"4":{"ha":296,"x_min":0,"x_max":0,"o":"m 143 0 l 225 0 b 242 17 238 0 242 4 l 242 171 b 253 182 242 179 244 182 l 276 182 b 293 199 289 182 293 186 l 293 283 b 276 300 293 296 289 300 l 253 300 b 242 311 244 300 242 303 l 244 1094 b 228 1111 244 1107 240 1111 l 125 1111 b 113 1100 117 1111 114 1108 b 6 293 88 949 15 443 b 4 271 4 285 4 279 l 4 199 b 21 182 4 186 8 182 l 118 182 b 129 171 126 182 129 179 l 126 17 b 143 0 126 4 131 0 z m 74 311 l 125 761 b 135 757 129 769 135 768 l 129 311 b 118 300 129 303 126 300 l 83 300 b 74 311 75 300 72 303 z "},"5":{"ha":332,"x_min":0,"x_max":0,"o":"m 168 -11 b 278 21 224 -11 258 1 b 315 394 306 50 315 71 b 281 756 315 694 310 726 b 222 776 265 771 246 776 b 150 738 197 776 176 764 b 129 746 135 719 128 722 l 132 978 b 143 988 132 986 135 989 l 290 986 b 307 1003 303 986 307 990 l 307 1094 b 290 1111 307 1107 303 1111 l 44 1111 b 28 1094 32 1111 28 1107 l 26 594 b 42 578 25 582 29 578 l 104 578 b 122 588 113 578 117 581 b 151 622 132 601 142 614 b 178 638 160 632 168 638 b 193 632 185 638 189 636 b 203 394 200 625 203 613 b 189 115 203 140 201 126 b 168 107 185 110 176 107 b 144 115 157 107 149 110 b 129 400 135 124 133 136 b 111 417 128 413 124 417 l 33 417 b 18 400 21 417 17 413 b 58 22 22 72 26 54 b 168 -11 79 1 115 -11 z "},"6":{"ha":364,"x_min":0,"x_max":0,"o":"m 186 -12 b 297 18 238 -14 276 -4 b 339 372 331 51 339 79 b 301 690 339 629 329 661 b 244 713 286 706 267 713 b 168 671 224 713 201 700 b 144 681 151 654 144 657 b 158 994 144 976 149 985 b 182 1004 164 1000 174 1004 b 204 996 193 1004 199 1001 b 219 818 214 988 215 975 b 238 801 221 806 225 801 l 321 801 b 338 818 333 801 338 806 b 294 1090 332 1031 324 1061 b 181 1124 271 1113 235 1124 b 75 1092 131 1124 94 1113 b 32 631 39 1056 32 1022 b 78 18 32 74 42 53 b 186 -12 97 -1 135 -11 z m 185 107 b 161 115 175 107 167 110 b 149 372 151 125 149 133 b 171 568 149 533 153 550 b 193 576 176 574 183 576 b 211 571 201 576 207 575 b 225 372 221 561 225 553 b 208 114 225 136 219 125 b 185 107 204 110 196 107 z "},"7":{"ha":276,"x_min":0,"x_max":0,"o":"m 67 0 l 168 0 b 179 11 176 0 179 3 b 258 969 182 321 221 683 b 260 1003 260 982 260 990 l 260 1094 b 243 1111 260 1107 256 1111 l 29 1111 b 13 1094 17 1111 13 1107 l 13 1003 b 29 986 13 990 17 986 l 142 989 b 151 978 150 989 153 986 b 57 11 108 708 68 319 b 67 0 56 3 58 0 z "},"8":{"ha":365,"x_min":0,"x_max":0,"o":"m 185 -11 b 300 21 239 -11 279 0 b 342 338 340 61 342 99 b 288 613 342 536 336 560 b 286 638 279 621 278 628 b 338 851 329 688 338 704 b 294 1088 338 1010 328 1054 b 182 1122 272 1108 231 1122 b 72 1088 133 1122 93 1108 b 29 851 39 1054 29 1010 b 79 633 29 704 35 688 b 78 610 88 624 88 618 b 24 338 28 558 24 536 b 65 19 24 99 25 60 b 185 -11 86 -1 128 -11 z m 182 106 b 151 115 167 106 158 110 b 139 336 138 131 138 156 b 154 540 139 503 139 525 b 182 549 160 544 169 549 b 210 540 194 549 206 544 b 228 336 224 526 226 503 b 214 115 228 157 228 131 b 182 106 208 110 197 106 z m 183 682 b 160 690 174 682 165 686 b 143 851 146 706 143 713 b 157 996 143 951 143 982 b 183 1004 163 1001 172 1004 b 208 996 193 1004 203 1001 b 222 851 222 982 222 951 b 207 692 222 713 221 706 b 183 682 200 686 192 682 z "},"9":{"ha":351,"x_min":0,"x_max":0,"o":"m 165 1121 b 54 1090 114 1122 75 1113 b 13 736 21 1057 13 1029 b 50 418 13 479 22 447 b 107 396 65 403 85 396 b 183 438 128 396 150 408 b 207 428 200 454 207 451 b 193 114 207 132 203 124 b 169 104 188 108 178 104 b 147 113 158 104 153 107 b 132 290 138 121 136 133 b 114 307 131 303 126 307 l 31 307 b 14 290 18 307 14 303 b 57 18 19 78 28 47 b 171 -15 81 -4 117 -15 b 276 17 221 -15 257 -4 b 319 478 313 53 319 86 b 274 1090 319 1035 310 1056 b 165 1121 254 1110 217 1119 z m 167 1001 b 190 993 176 1001 185 999 b 203 736 200 983 203 975 b 181 540 203 575 199 558 b 158 532 175 535 168 532 b 140 538 150 532 144 533 b 126 736 131 547 126 556 b 143 994 126 972 132 983 b 167 1001 147 999 156 1001 z "}," ":{"ha":117,"x_min":0,"x_max":0,"o":""}," ":{"ha":117,"x_min":0,"x_max":0,"o":""},"A":{"ha":361,"x_min":0,"x_max":0,"o":"m 29 -1 l 107 -1 b 118 10 115 -1 118 1 l 126 222 b 138 233 126 231 129 233 l 208 233 b 219 222 217 233 219 231 l 229 10 b 242 -1 231 1 233 -1 b 335 -1 272 -3 304 -3 b 346 10 343 -1 346 1 b 256 1094 326 378 299 767 b 236 1113 254 1107 249 1111 l 128 1111 b 108 1094 114 1111 110 1107 b 18 10 72 793 36 378 b 29 -1 18 1 21 -1 z m 132 361 b 165 824 142 515 153 678 b 181 821 168 833 181 832 b 213 361 192 675 204 514 b 201 350 213 353 210 350 l 143 350 b 132 361 135 350 132 353 z "},"Á":{"ha":361,"x_min":0,"x_max":0,"o":"m 29 -1 l 107 -1 b 118 10 115 -1 118 1 l 126 222 b 138 233 126 231 129 233 l 208 233 b 219 222 217 233 219 231 l 229 10 b 242 -1 231 1 233 -1 b 335 -1 272 -3 304 -3 b 346 10 343 -1 346 1 b 256 1094 326 378 299 767 b 236 1113 254 1107 249 1111 l 128 1111 b 108 1094 114 1111 110 1107 b 18 10 72 793 36 378 b 29 -1 18 1 21 -1 z m 125 1153 l 188 1153 b 204 1164 196 1153 200 1156 l 271 1307 b 264 1317 274 1314 272 1317 l 186 1317 b 171 1306 178 1317 175 1314 l 117 1164 b 125 1153 114 1156 117 1153 z m 132 361 b 165 824 142 515 153 678 b 181 821 168 833 181 832 b 213 361 192 675 204 514 b 201 350 213 353 210 350 l 143 350 b 132 361 135 350 132 353 z "},"Â":{"ha":361,"x_min":0,"x_max":0,"o":"m 29 -1 l 107 -1 b 118 10 115 -1 118 1 l 126 222 b 138 233 126 231 129 233 l 208 233 b 219 222 217 233 219 231 l 229 10 b 242 -1 231 1 233 -1 b 335 -1 272 -3 304 -3 b 346 10 343 -1 346 1 b 256 1094 326 378 299 767 b 236 1113 254 1107 249 1111 l 128 1111 b 108 1094 114 1111 110 1107 b 18 10 72 793 36 378 b 29 -1 18 1 21 -1 z m 121 1306 l 69 1163 b 76 1151 67 1154 68 1151 l 144 1151 b 160 1163 153 1151 157 1154 l 178 1219 l 196 1163 b 211 1151 199 1154 203 1151 l 278 1151 b 286 1163 286 1151 289 1154 l 233 1306 b 218 1317 231 1314 226 1317 l 136 1317 b 121 1306 128 1317 124 1314 z m 132 361 b 165 824 142 515 153 678 b 181 821 168 833 181 832 b 213 361 192 675 204 514 b 201 350 213 353 210 350 l 143 350 b 132 361 135 350 132 353 z "},"Ä":{"ha":361,"x_min":0,"x_max":0,"o":"m 29 -1 l 107 -1 b 118 10 115 -1 118 1 l 126 222 b 138 233 126 231 129 233 l 208 233 b 219 222 217 233 219 231 l 229 10 b 242 -1 231 1 233 -1 b 335 -1 272 -3 304 -3 b 346 10 343 -1 346 1 b 256 1094 326 378 299 767 b 236 1113 254 1107 249 1111 l 128 1111 b 108 1094 114 1111 110 1107 b 18 10 72 793 36 378 b 29 -1 18 1 21 -1 z m 208 1168 l 271 1168 b 288 1185 283 1168 288 1172 l 288 1275 b 271 1292 288 1288 283 1292 l 208 1292 b 192 1275 196 1292 192 1288 l 192 1185 b 208 1168 192 1172 196 1168 z m 88 1168 l 147 1168 b 164 1185 160 1168 164 1172 l 164 1275 b 147 1292 164 1288 160 1292 l 88 1292 b 71 1275 75 1292 71 1288 l 71 1185 b 88 1168 71 1172 75 1168 z m 132 361 b 165 824 142 515 153 678 b 181 821 168 833 181 832 b 213 361 192 675 204 514 b 201 350 213 353 210 350 l 143 350 b 132 361 135 350 132 353 z "},"À":{"ha":361,"x_min":0,"x_max":0,"o":"m 29 -1 l 107 -1 b 118 10 115 -1 118 1 l 126 222 b 138 233 126 231 129 233 l 208 233 b 219 222 217 233 219 231 l 229 10 b 242 -1 231 1 233 -1 b 335 -1 272 -3 304 -3 b 346 10 343 -1 346 1 b 256 1094 326 378 299 767 b 236 1113 254 1107 249 1111 l 128 1111 b 108 1094 114 1111 110 1107 b 18 10 72 793 36 378 b 29 -1 18 1 21 -1 z m 225 1164 l 179 1306 b 165 1317 178 1314 174 1317 l 86 1317 b 79 1307 78 1317 76 1314 l 140 1164 b 156 1153 143 1156 147 1153 l 218 1153 b 225 1164 226 1153 228 1156 z m 132 361 b 165 824 142 515 153 678 b 181 821 168 833 181 832 b 213 361 192 675 204 514 b 201 350 213 353 210 350 l 143 350 b 132 361 135 350 132 353 z "},"Å":{"ha":361,"x_min":0,"x_max":0,"o":"m 29 -1 l 107 -1 b 118 10 115 -1 118 1 l 126 222 b 138 233 126 231 129 233 l 208 233 b 219 222 217 233 219 231 l 229 10 b 242 -1 231 1 233 -1 b 335 -1 272 -3 304 -3 b 346 10 343 -1 346 1 b 256 1094 326 378 299 767 b 236 1113 254 1107 249 1111 l 128 1111 b 108 1094 114 1111 110 1107 b 18 10 72 793 36 378 b 29 -1 18 1 21 -1 z m 179 1140 b 275 1244 240 1140 275 1182 b 179 1349 275 1306 240 1349 b 85 1244 119 1349 85 1304 b 179 1140 85 1183 119 1140 z m 181 1200 b 161 1244 167 1200 161 1210 b 181 1286 161 1276 167 1286 b 199 1244 193 1286 199 1276 b 181 1200 199 1210 193 1200 z m 132 361 b 165 824 142 515 153 678 b 181 821 168 833 181 832 b 213 361 192 675 204 514 b 201 350 213 353 210 350 l 143 350 b 132 361 135 350 132 353 z "},"Ã":{"ha":361,"x_min":0,"x_max":0,"o":"m 29 -1 l 107 -1 b 118 10 115 -1 118 1 l 126 222 b 138 233 126 231 129 233 l 208 233 b 219 222 217 233 219 231 l 229 10 b 242 -1 231 1 233 -1 b 335 -1 272 -3 304 -3 b 346 10 343 -1 346 1 b 256 1094 326 378 299 767 b 236 1113 254 1107 249 1111 l 128 1111 b 108 1094 114 1111 110 1107 b 18 10 72 793 36 378 b 29 -1 18 1 21 -1 z m 222 1154 b 276 1175 244 1154 264 1164 b 283 1196 282 1182 283 1188 l 283 1260 b 275 1263 283 1268 282 1269 b 225 1238 254 1242 246 1238 b 186 1249 214 1238 200 1243 b 135 1264 172 1256 154 1264 b 79 1240 113 1264 92 1254 b 72 1221 74 1235 72 1229 l 72 1154 b 79 1151 72 1146 74 1146 b 129 1179 103 1176 111 1179 b 172 1168 143 1179 157 1174 b 222 1154 186 1161 203 1154 z m 132 361 b 165 824 142 515 153 678 b 181 821 168 833 181 832 b 213 361 192 675 204 514 b 201 350 213 353 210 350 l 143 350 b 132 361 135 350 132 353 z "},"B":{"ha":364,"x_min":0,"x_max":0,"o":"m 51 0 l 186 0 b 299 31 232 0 272 4 b 340 325 336 68 340 119 b 308 578 340 500 336 546 b 285 608 296 589 285 596 b 306 644 285 618 292 625 b 335 853 326 672 335 708 b 290 1083 335 993 328 1044 b 178 1111 271 1104 242 1111 l 51 1111 b 35 1094 39 1111 35 1107 b 35 17 33 869 33 363 b 51 0 35 4 39 0 z m 151 125 b 151 524 150 203 150 431 b 163 535 151 532 154 535 l 176 535 b 206 522 188 535 196 532 b 225 326 219 508 225 489 b 211 122 225 146 222 135 b 178 114 203 114 190 114 l 163 114 b 151 125 154 114 151 117 z m 150 658 l 151 986 b 164 997 151 994 156 997 l 174 997 b 207 986 190 997 199 994 b 219 819 217 976 219 954 b 199 658 219 703 210 671 b 169 647 190 650 182 647 l 161 647 b 150 658 153 647 150 650 z "},"C":{"ha":369,"x_min":0,"x_max":0,"o":"m 189 -11 b 306 22 244 -11 282 -1 b 344 461 338 56 339 71 b 333 472 344 469 342 472 l 242 472 b 231 461 233 472 231 469 b 215 117 225 146 228 128 b 190 107 208 108 197 107 b 161 115 178 107 168 108 b 147 551 150 126 147 147 b 163 994 149 957 151 982 b 189 1001 168 1000 178 1001 b 214 994 197 1001 208 1000 b 231 679 225 983 225 969 b 242 668 231 671 233 668 l 333 668 b 344 679 342 668 344 671 b 304 1086 340 1024 339 1051 b 188 1119 282 1108 240 1119 b 76 1085 138 1119 99 1108 b 33 551 38 1046 33 1004 b 74 24 33 86 38 60 b 189 -11 97 -1 135 -11 z "},"Ç":{"ha":369,"x_min":0,"x_max":0,"o":"m 33 551 b 74 24 33 86 38 60 b 146 -8 90 6 114 -4 l 106 -168 b 114 -179 103 -176 106 -179 l 186 -179 b 200 -168 194 -179 199 -176 l 231 -8 b 306 22 264 -4 289 6 b 344 461 338 56 339 71 b 333 472 344 469 342 472 l 242 472 b 231 461 233 472 231 469 b 215 117 225 146 228 128 b 190 107 208 108 197 107 b 161 115 178 107 168 108 b 147 551 150 126 147 147 b 163 994 149 957 151 982 b 189 1001 168 1000 178 1001 b 214 994 197 1001 208 1000 b 231 679 225 983 225 969 b 242 668 231 671 233 668 l 333 668 b 344 679 342 668 344 671 b 304 1086 340 1024 339 1051 b 188 1119 282 1108 240 1119 b 76 1085 138 1119 99 1108 b 33 551 38 1046 33 1004 z "},"D":{"ha":375,"x_min":0,"x_max":0,"o":"m 51 0 l 182 0 b 290 33 229 0 264 7 b 342 565 331 74 342 94 b 290 1078 342 997 332 1036 b 175 1111 265 1104 228 1111 l 51 1111 b 35 1094 39 1111 35 1107 b 35 17 33 900 35 215 b 51 0 35 4 39 0 z m 149 126 b 150 982 147 282 149 828 b 161 993 150 990 153 993 l 175 993 b 206 982 188 993 199 990 b 228 565 224 965 228 936 b 206 126 228 171 222 143 b 178 115 199 118 190 115 l 160 115 b 149 126 151 115 149 118 z "},"Ð":{"ha":375,"x_min":0,"x_max":0,"o":"m 51 0 l 182 0 b 290 33 229 0 264 7 b 342 565 331 74 342 94 b 290 1078 342 997 332 1036 b 175 1111 265 1104 228 1111 l 51 1111 b 35 1094 39 1111 35 1107 l 35 608 l 24 608 b 7 590 11 608 7 603 l 7 528 b 24 511 7 515 11 511 l 35 511 l 35 17 b 51 0 35 4 39 0 z m 149 126 l 149 511 l 164 511 b 181 529 176 511 181 517 l 181 590 b 164 608 181 603 176 608 l 149 608 l 150 982 b 161 993 150 990 153 993 l 175 993 b 206 982 188 993 199 990 b 228 565 224 965 228 936 b 206 126 228 171 222 143 b 178 115 199 118 190 115 l 160 115 b 149 126 151 115 149 118 z "},"E":{"ha":289,"x_min":0,"x_max":0,"o":"m 53 0 l 249 0 b 265 17 261 0 265 4 l 265 101 b 249 118 265 114 261 118 b 160 118 222 119 186 119 b 149 129 151 118 149 121 b 149 507 147 217 147 425 b 160 518 149 515 151 518 l 239 518 b 256 535 251 518 256 522 l 256 621 b 239 638 256 633 251 638 l 160 638 b 149 649 151 638 149 640 b 149 982 147 729 147 900 b 160 993 149 990 151 993 l 249 990 b 265 1008 261 990 265 994 l 265 1093 b 249 1111 265 1107 261 1111 l 53 1111 b 36 1094 40 1111 36 1107 b 36 17 35 885 33 240 b 53 0 36 4 40 0 z "},"É":{"ha":289,"x_min":0,"x_max":0,"o":"m 53 0 l 249 0 b 265 17 261 0 265 4 l 265 101 b 249 118 265 114 261 118 b 160 118 222 119 186 119 b 149 129 151 118 149 121 b 149 507 147 217 147 425 b 160 518 149 515 151 518 l 239 518 b 256 535 251 518 256 522 l 256 621 b 239 638 256 633 251 638 l 160 638 b 149 649 151 638 149 640 b 149 982 147 729 147 900 b 160 993 149 990 151 993 l 249 990 b 265 1008 261 990 265 994 l 265 1093 b 249 1111 265 1107 261 1111 l 53 1111 b 36 1094 40 1111 36 1107 b 36 17 35 885 33 240 b 53 0 36 4 40 0 z m 106 1153 l 168 1153 b 185 1164 176 1153 181 1156 l 251 1307 b 244 1317 254 1314 253 1317 l 167 1317 b 151 1306 158 1317 156 1314 l 97 1164 b 106 1153 94 1156 97 1153 z "},"Ê":{"ha":289,"x_min":0,"x_max":0,"o":"m 53 0 l 249 0 b 265 17 261 0 265 4 l 265 101 b 249 118 265 114 261 118 b 160 118 222 119 186 119 b 149 129 151 118 149 121 b 149 507 147 217 147 425 b 160 518 149 515 151 518 l 239 518 b 256 535 251 518 256 522 l 256 621 b 239 638 256 633 251 638 l 160 638 b 149 649 151 638 149 640 b 149 982 147 729 147 900 b 160 993 149 990 151 993 l 249 990 b 265 1008 261 990 265 994 l 265 1093 b 249 1111 265 1107 261 1111 l 53 1111 b 36 1094 40 1111 36 1107 b 36 17 35 885 33 240 b 53 0 36 4 40 0 z m 101 1306 l 50 1163 b 57 1151 47 1154 49 1151 l 125 1151 b 140 1163 133 1151 138 1154 l 158 1219 l 176 1163 b 192 1151 179 1154 183 1151 l 258 1151 b 267 1163 267 1151 269 1154 l 214 1306 b 199 1317 211 1314 207 1317 l 117 1317 b 101 1306 108 1317 104 1314 z "},"Ë":{"ha":289,"x_min":0,"x_max":0,"o":"m 53 0 l 249 0 b 265 17 261 0 265 4 l 265 101 b 249 118 265 114 261 118 b 160 118 222 119 186 119 b 149 129 151 118 149 121 b 149 507 147 217 147 425 b 160 518 149 515 151 518 l 239 518 b 256 535 251 518 256 522 l 256 621 b 239 638 256 633 251 638 l 160 638 b 149 649 151 638 149 640 b 149 982 147 729 147 900 b 160 993 149 990 151 993 l 249 990 b 265 1008 261 990 265 994 l 265 1093 b 249 1111 265 1107 261 1111 l 53 1111 b 36 1094 40 1111 36 1107 b 36 17 35 885 33 240 b 53 0 36 4 40 0 z m 189 1168 l 251 1168 b 268 1185 264 1168 268 1172 l 268 1275 b 251 1292 268 1288 264 1292 l 189 1292 b 172 1275 176 1292 172 1288 l 172 1185 b 189 1168 172 1172 176 1168 z m 68 1168 l 128 1168 b 144 1185 140 1168 144 1172 l 144 1275 b 128 1292 144 1288 140 1292 l 68 1292 b 51 1275 56 1292 51 1288 l 51 1185 b 68 1168 51 1172 56 1168 z "},"È":{"ha":289,"x_min":0,"x_max":0,"o":"m 53 0 l 249 0 b 265 17 261 0 265 4 l 265 101 b 249 118 265 114 261 118 b 160 118 222 119 186 119 b 149 129 151 118 149 121 b 149 507 147 217 147 425 b 160 518 149 515 151 518 l 239 518 b 256 535 251 518 256 522 l 256 621 b 239 638 256 633 251 638 l 160 638 b 149 649 151 638 149 640 b 149 982 147 729 147 900 b 160 993 149 990 151 993 l 249 990 b 265 1008 261 990 265 994 l 265 1093 b 249 1111 265 1107 261 1111 l 53 1111 b 36 1094 40 1111 36 1107 b 36 17 35 885 33 240 b 53 0 36 4 40 0 z m 206 1164 l 160 1306 b 146 1317 158 1314 154 1317 l 67 1317 b 60 1307 58 1317 57 1314 l 121 1164 b 136 1153 124 1156 128 1153 l 199 1153 b 206 1164 207 1153 208 1156 z "},"F":{"ha":286,"x_min":0,"x_max":0,"o":"m 56 0 l 138 0 b 154 17 150 0 154 4 b 149 482 151 119 151 315 b 160 493 149 490 151 493 l 243 493 b 261 510 257 493 261 497 l 261 594 b 243 613 261 607 257 613 l 160 613 b 149 624 151 613 149 615 l 151 982 b 163 993 151 990 154 993 l 249 990 b 265 1007 261 990 265 994 l 265 1093 b 249 1111 265 1107 261 1111 l 56 1111 b 38 1094 43 1111 38 1107 b 38 17 33 800 31 356 b 56 0 38 4 43 0 z "},"G":{"ha":368,"x_min":0,"x_max":0,"o":"m 143 -11 b 232 39 171 -11 197 4 b 258 31 249 57 256 54 l 260 17 b 279 0 261 4 267 0 l 324 0 b 340 17 336 0 340 4 l 338 601 b 319 618 338 614 333 618 l 196 618 b 179 601 183 618 179 614 l 179 518 b 196 501 179 506 183 501 l 217 501 b 228 490 225 501 228 499 b 213 128 233 160 231 150 b 182 107 203 115 192 107 b 163 115 176 107 169 108 b 146 546 151 126 147 143 b 161 996 146 953 147 982 b 188 1006 168 1003 176 1006 b 213 997 196 1006 207 1003 b 228 757 222 988 222 971 b 239 746 228 749 231 746 l 328 746 b 339 757 336 746 339 749 b 297 1090 335 1019 329 1057 b 189 1122 275 1111 236 1122 b 74 1089 135 1122 96 1110 b 31 546 38 1053 31 1042 b 72 17 31 71 38 53 b 143 -11 92 -1 117 -11 z "},"H":{"ha":381,"x_min":0,"x_max":0,"o":"m 53 0 l 135 0 b 153 17 149 0 153 4 b 154 493 151 150 153 368 b 165 504 154 501 157 504 l 217 504 b 228 493 225 504 228 501 b 226 17 229 360 228 149 b 243 0 226 4 231 0 l 328 0 b 344 17 340 0 344 4 b 342 1094 346 268 346 836 b 325 1111 342 1107 338 1111 l 244 1111 b 228 1094 232 1111 228 1107 b 228 639 229 972 229 760 b 217 628 228 631 225 628 l 167 628 b 156 639 158 628 156 631 b 151 1094 153 758 150 976 b 133 1111 151 1107 147 1111 l 54 1111 b 38 1094 42 1111 38 1107 b 36 17 35 839 33 268 b 53 0 36 4 40 0 z "},"I":{"ha":185,"x_min":0,"x_max":0,"o":"m 53 0 b 132 0 78 -1 108 -1 b 149 17 144 0 149 4 b 150 1094 151 353 151 824 b 132 1111 149 1107 144 1111 b 53 1111 108 1113 78 1113 b 36 1094 40 1111 36 1107 b 36 17 33 826 33 351 b 53 0 36 4 40 0 z "},"Ĳ":{"ha":528,"x_min":0,"x_max":0,"o":"m 53 0 b 132 0 78 -1 108 -1 b 149 17 144 0 149 4 b 150 1094 151 353 151 824 b 132 1111 149 1107 144 1111 b 53 1111 108 1113 78 1113 b 36 1094 40 1111 36 1107 b 36 17 33 826 33 351 b 53 0 36 4 40 0 z m 351 -11 b 463 19 407 -11 442 -1 b 496 322 489 46 494 74 b 494 1094 499 643 497 889 b 476 1111 494 1107 489 1111 b 396 1111 450 1113 419 1113 b 379 1094 383 1111 379 1107 b 385 321 379 903 385 642 b 375 115 385 135 385 124 b 351 107 369 108 360 107 b 328 115 343 107 333 108 b 315 371 318 124 317 136 b 299 389 315 383 311 389 b 219 389 274 389 242 390 b 203 371 207 389 203 383 b 240 22 204 75 211 51 b 351 -11 264 -1 299 -11 z "},"Í":{"ha":185,"x_min":0,"x_max":0,"o":"m 53 0 b 132 0 78 -1 108 -1 b 149 17 144 0 149 4 b 150 1094 151 353 151 824 b 132 1111 149 1107 144 1111 b 53 1111 108 1113 78 1113 b 36 1094 40 1111 36 1107 b 36 17 33 826 33 351 b 53 0 36 4 40 0 z m 42 1153 l 104 1153 b 121 1164 113 1153 117 1156 l 188 1307 b 181 1317 190 1314 189 1317 l 103 1317 b 88 1306 94 1317 92 1314 l 33 1164 b 42 1153 31 1156 33 1153 z "},"Î":{"ha":185,"x_min":0,"x_max":0,"o":"m 53 0 b 132 0 78 -1 108 -1 b 149 17 144 0 149 4 b 150 1094 151 353 151 824 b 132 1111 149 1107 144 1111 b 53 1111 108 1113 78 1113 b 36 1094 40 1111 36 1107 b 36 17 33 826 33 351 b 53 0 36 4 40 0 z m 38 1306 l -14 1163 b -7 1151 -17 1154 -15 1151 l 61 1151 b 76 1163 69 1151 74 1154 l 94 1219 l 113 1163 b 128 1151 115 1154 119 1151 l 194 1151 b 203 1163 203 1151 206 1154 l 150 1306 b 135 1317 147 1314 143 1317 l 53 1317 b 38 1306 44 1317 40 1314 z "},"Ï":{"ha":185,"x_min":0,"x_max":0,"o":"m 53 0 b 132 0 78 -1 108 -1 b 149 17 144 0 149 4 b 150 1094 151 353 151 824 b 132 1111 149 1107 144 1111 b 53 1111 108 1113 78 1113 b 36 1094 40 1111 36 1107 b 36 17 33 826 33 351 b 53 0 36 4 40 0 z m 125 1168 l 188 1168 b 204 1185 200 1168 204 1172 l 204 1275 b 188 1292 204 1288 200 1292 l 125 1292 b 108 1275 113 1292 108 1288 l 108 1185 b 125 1168 108 1172 113 1168 z m 4 1168 l 64 1168 b 81 1185 76 1168 81 1172 l 81 1275 b 64 1292 81 1288 76 1292 l 4 1292 b -12 1275 -8 1292 -12 1288 l -12 1185 b 4 1168 -12 1172 -8 1168 z "},"Ì":{"ha":185,"x_min":0,"x_max":0,"o":"m 53 0 b 132 0 78 -1 108 -1 b 149 17 144 0 149 4 b 150 1094 151 353 151 824 b 132 1111 149 1107 144 1111 b 53 1111 108 1113 78 1113 b 36 1094 40 1111 36 1107 b 36 17 33 826 33 351 b 53 0 36 4 40 0 z m 142 1164 l 96 1306 b 82 1317 94 1314 90 1317 l 3 1317 b -4 1307 -6 1317 -7 1314 l 57 1164 b 72 1153 60 1156 64 1153 l 135 1153 b 142 1164 143 1153 144 1156 z "},"J":{"ha":343,"x_min":0,"x_max":0,"o":"m 167 -11 b 278 19 222 -11 257 -1 b 311 322 304 46 310 74 b 310 1094 314 643 313 889 b 292 1111 310 1107 304 1111 b 211 1111 265 1113 235 1113 b 194 1094 199 1111 194 1107 b 200 321 194 903 200 642 b 190 115 200 135 200 124 b 167 107 185 108 175 107 b 143 115 158 107 149 108 b 131 371 133 124 132 136 b 114 389 131 383 126 389 b 35 389 89 389 57 390 b 18 371 22 389 18 383 b 56 22 19 75 26 51 b 167 -11 79 -1 114 -11 z "},"K":{"ha":342,"x_min":0,"x_max":0,"o":"m 54 0 l 135 0 b 151 17 147 0 153 4 b 150 533 150 161 149 333 b 164 531 153 543 163 542 b 219 11 183 363 207 129 b 232 0 221 3 224 0 l 325 0 b 336 11 333 0 336 3 b 265 628 321 171 288 463 b 265 650 264 636 264 642 l 342 1100 b 332 1111 343 1108 340 1111 l 244 1111 b 231 1100 236 1111 232 1108 b 163 675 210 965 185 821 b 149 679 158 667 149 668 l 151 1094 b 133 1111 151 1107 147 1111 l 54 1113 b 36 1096 42 1113 38 1108 b 36 17 33 886 33 229 b 54 0 38 4 42 0 z "},"L":{"ha":260,"x_min":0,"x_max":0,"o":"m 53 0 l 235 0 b 251 17 247 0 253 4 l 251 103 b 233 121 251 115 247 121 b 158 119 213 122 186 121 b 147 131 150 119 147 122 b 153 1094 146 367 151 889 b 136 1111 153 1107 149 1111 l 54 1111 b 38 1094 42 1111 38 1107 b 36 17 35 817 33 254 b 53 0 36 4 40 0 z "},"M":{"ha":485,"x_min":0,"x_max":0,"o":"m 51 0 l 108 0 b 125 17 121 0 125 4 b 125 710 121 210 121 476 b 132 707 128 718 132 718 l 174 11 b 186 0 174 3 178 0 l 275 0 b 288 11 283 0 288 3 b 332 710 300 221 319 496 b 339 706 335 718 339 718 b 338 17 340 493 338 208 b 354 0 338 4 342 0 l 433 0 b 450 17 446 0 450 4 b 450 1094 451 290 450 821 b 433 1111 450 1107 446 1111 l 328 1111 b 315 1100 319 1111 317 1108 b 254 303 289 847 265 549 b 247 293 254 296 253 293 b 242 303 243 293 242 296 b 181 1100 229 550 203 900 b 168 1111 179 1108 176 1111 l 51 1111 b 35 1094 39 1111 35 1107 l 35 17 b 51 0 35 4 39 0 z "},"N":{"ha":397,"x_min":0,"x_max":0,"o":"m 46 0 l 118 -1 b 135 17 131 0 135 4 b 129 694 135 226 129 508 b 140 693 131 701 139 701 b 250 11 167 510 213 243 b 264 0 251 3 256 0 b 349 0 288 -1 322 -1 b 367 17 363 0 367 4 l 367 1094 b 349 1111 367 1107 363 1111 l 278 1113 b 261 1094 265 1111 261 1107 l 264 472 b 253 474 261 465 254 465 b 151 1100 225 658 176 969 b 139 1111 150 1108 147 1111 b 46 1111 113 1113 76 1113 b 29 1094 33 1111 29 1107 b 29 17 29 743 28 332 b 46 0 29 4 33 0 z "},"Ñ":{"ha":397,"x_min":0,"x_max":0,"o":"m 46 0 l 118 -1 b 135 17 131 0 135 4 b 129 694 135 226 129 508 b 140 693 131 701 139 701 b 250 11 167 510 213 243 b 264 0 251 3 256 0 b 349 0 288 -1 322 -1 b 367 17 363 0 367 4 l 367 1094 b 349 1111 367 1107 363 1111 l 278 1113 b 261 1094 265 1111 261 1107 l 264 472 b 253 474 261 465 254 465 b 151 1100 225 658 176 969 b 139 1111 150 1108 147 1111 b 46 1111 113 1113 76 1113 b 29 1094 33 1111 29 1107 b 29 17 29 743 28 332 b 46 0 29 4 33 0 z m 242 1154 b 296 1175 264 1154 283 1164 b 303 1196 301 1182 303 1188 l 303 1260 b 294 1263 303 1268 301 1269 b 244 1238 274 1242 265 1238 b 206 1249 233 1238 219 1243 b 154 1264 192 1256 174 1264 b 99 1240 132 1264 111 1254 b 92 1221 93 1235 92 1229 l 92 1154 b 99 1151 92 1146 93 1146 b 149 1179 122 1176 131 1179 b 192 1168 163 1179 176 1174 b 242 1154 206 1161 222 1154 z "},"O":{"ha":381,"x_min":0,"x_max":0,"o":"m 190 -10 b 307 22 243 -10 286 1 b 347 557 340 57 347 78 b 304 1088 347 1039 338 1053 b 190 1121 282 1110 240 1121 b 76 1088 139 1121 99 1110 b 33 557 42 1053 33 1039 b 75 24 33 78 40 58 b 190 -10 97 1 138 -10 z m 190 108 b 163 117 178 108 168 111 b 149 557 150 129 149 136 b 164 996 149 976 151 983 b 190 1003 169 1000 181 1003 b 218 994 201 1003 213 1000 b 231 557 229 982 231 976 b 218 117 231 136 229 129 b 190 108 213 111 201 108 z "},"Ó":{"ha":381,"x_min":0,"x_max":0,"o":"m 190 -10 b 307 22 243 -10 286 1 b 347 557 340 57 347 78 b 304 1088 347 1039 338 1053 b 190 1121 282 1110 240 1121 b 76 1088 139 1121 99 1110 b 33 557 42 1053 33 1039 b 75 24 33 78 40 58 b 190 -10 97 1 138 -10 z m 190 108 b 163 117 178 108 168 111 b 149 557 150 129 149 136 b 164 996 149 976 151 983 b 190 1003 169 1000 181 1003 b 218 994 201 1003 213 1000 b 231 557 229 982 231 976 b 218 117 231 136 229 129 b 190 108 213 111 201 108 z m 136 1154 l 199 1154 b 215 1165 207 1154 211 1157 l 282 1308 b 275 1318 285 1315 283 1318 l 197 1318 b 182 1307 189 1318 186 1315 l 128 1165 b 136 1154 125 1157 128 1154 z "},"Ô":{"ha":381,"x_min":0,"x_max":0,"o":"m 190 -10 b 307 22 243 -10 286 1 b 347 557 340 57 347 78 b 304 1088 347 1039 338 1053 b 190 1121 282 1110 240 1121 b 76 1088 139 1121 99 1110 b 33 557 42 1053 33 1039 b 75 24 33 78 40 58 b 190 -10 97 1 138 -10 z m 190 108 b 163 117 178 108 168 111 b 149 557 150 129 149 136 b 164 996 149 976 151 983 b 190 1003 169 1000 181 1003 b 218 994 201 1003 213 1000 b 231 557 229 982 231 976 b 218 117 231 136 229 129 b 190 108 213 111 201 108 z m 133 1307 l 82 1164 b 89 1153 79 1156 81 1153 l 157 1153 b 172 1164 165 1153 169 1156 l 190 1221 l 208 1164 b 224 1153 211 1156 215 1153 l 290 1153 b 299 1164 299 1153 301 1156 l 246 1307 b 231 1318 243 1315 239 1318 l 149 1318 b 133 1307 140 1318 136 1315 z "},"Ö":{"ha":381,"x_min":0,"x_max":0,"o":"m 190 -10 b 307 22 243 -10 286 1 b 347 557 340 57 347 78 b 304 1088 347 1039 338 1053 b 190 1121 282 1110 240 1121 b 76 1088 139 1121 99 1110 b 33 557 42 1053 33 1039 b 75 24 33 78 40 58 b 190 -10 97 1 138 -10 z m 190 108 b 163 117 178 108 168 111 b 149 557 150 129 149 136 b 164 996 149 976 151 983 b 190 1003 169 1000 181 1003 b 218 994 201 1003 213 1000 b 231 557 229 982 231 976 b 218 117 231 136 229 129 b 190 108 213 111 201 108 z m 221 1169 l 283 1169 b 300 1186 296 1169 300 1174 l 300 1276 b 283 1293 300 1289 296 1293 l 221 1293 b 204 1276 208 1293 204 1289 l 204 1186 b 221 1169 204 1174 208 1169 z m 100 1169 l 160 1169 b 176 1186 172 1169 176 1174 l 176 1276 b 160 1293 176 1289 172 1293 l 100 1293 b 83 1276 88 1293 83 1289 l 83 1186 b 100 1169 83 1174 88 1169 z "},"Ò":{"ha":381,"x_min":0,"x_max":0,"o":"m 190 -10 b 307 22 243 -10 286 1 b 347 557 340 57 347 78 b 304 1088 347 1039 338 1053 b 190 1121 282 1110 240 1121 b 76 1088 139 1121 99 1110 b 33 557 42 1053 33 1039 b 75 24 33 78 40 58 b 190 -10 97 1 138 -10 z m 190 108 b 163 117 178 108 168 111 b 149 557 150 129 149 136 b 164 996 149 976 151 983 b 190 1003 169 1000 181 1003 b 218 994 201 1003 213 1000 b 231 557 229 982 231 976 b 218 117 231 136 229 129 b 190 108 213 111 201 108 z m 238 1165 l 192 1307 b 178 1318 190 1315 186 1318 l 99 1318 b 92 1308 90 1318 89 1315 l 153 1165 b 168 1154 156 1157 160 1154 l 231 1154 b 238 1165 239 1154 240 1157 z "},"Ø":{"ha":381,"x_min":0,"x_max":0,"o":"m 190 -10 b 307 22 243 -10 286 1 b 347 557 340 57 347 78 b 304 1088 347 1039 338 1053 b 260 1111 293 1099 278 1106 l 264 1161 b 253 1172 264 1169 261 1172 l 219 1172 b 207 1161 211 1172 208 1169 l 204 1121 l 190 1121 b 76 1088 139 1121 99 1110 b 33 557 42 1053 33 1039 b 75 24 33 78 40 58 b 118 0 85 14 100 6 l 113 -64 b 122 -75 111 -72 114 -75 l 157 -75 b 169 -64 165 -75 168 -72 l 174 -10 z m 190 108 l 183 108 l 231 726 l 231 557 b 218 117 231 136 229 129 b 190 108 213 111 201 108 z m 149 406 l 149 557 b 164 996 149 976 151 983 b 190 1003 169 1000 181 1003 l 194 1003 z "},"Õ":{"ha":381,"x_min":0,"x_max":0,"o":"m 190 -10 b 307 22 243 -10 286 1 b 347 557 340 57 347 78 b 304 1088 347 1039 338 1053 b 190 1121 282 1110 240 1121 b 76 1088 139 1121 99 1110 b 33 557 42 1053 33 1039 b 75 24 33 78 40 58 b 190 -10 97 1 138 -10 z m 190 108 b 163 117 178 108 168 111 b 149 557 150 129 149 136 b 164 996 149 976 151 983 b 190 1003 169 1000 181 1003 b 218 994 201 1003 213 1000 b 231 557 229 982 231 976 b 218 117 231 136 229 129 b 190 108 213 111 201 108 z m 233 1156 b 288 1176 256 1156 275 1165 b 294 1197 293 1183 294 1189 l 294 1261 b 286 1264 294 1269 293 1271 b 236 1239 265 1243 257 1239 b 197 1250 225 1239 211 1244 b 146 1265 183 1257 165 1265 b 90 1242 124 1265 103 1256 b 83 1222 85 1236 83 1231 l 83 1156 b 90 1153 83 1147 85 1147 b 140 1181 114 1178 122 1181 b 183 1169 154 1181 168 1175 b 233 1156 197 1163 214 1156 z "},"Œ":{"ha":488,"x_min":0,"x_max":0,"o":"m 190 -10 b 267 0 219 -10 244 -7 l 447 0 b 464 17 460 0 464 4 l 464 101 b 447 118 464 114 460 118 b 358 118 421 119 385 119 b 347 129 350 118 347 121 l 346 317 l 347 506 l 347 507 b 358 518 347 515 350 518 l 438 518 b 454 535 450 518 454 522 l 454 621 b 438 638 454 633 450 638 l 358 638 b 347 649 350 638 347 640 l 347 660 l 346 771 l 347 982 b 358 993 347 990 350 993 l 447 990 b 464 1008 460 990 464 994 l 464 1093 b 447 1111 464 1107 460 1111 l 263 1111 b 190 1121 242 1118 217 1121 b 76 1088 139 1121 99 1110 b 33 557 42 1053 33 1039 b 75 24 33 78 40 58 b 190 -10 97 1 138 -10 z m 190 108 b 163 117 178 108 168 111 b 149 557 150 129 149 136 b 164 996 149 976 151 983 b 190 1003 169 1000 181 1003 b 218 994 201 1003 213 1000 b 231 557 229 982 231 976 b 218 117 231 136 229 129 b 190 108 213 111 201 108 z "},"P":{"ha":353,"x_min":0,"x_max":0,"o":"m 51 0 l 139 0 b 156 17 153 0 157 4 b 151 404 150 131 151 306 b 163 415 151 413 154 415 l 168 415 b 286 451 219 415 258 424 b 336 768 321 486 336 533 b 286 1092 336 1004 322 1053 b 179 1125 261 1118 225 1125 l 51 1125 b 35 1108 39 1125 35 1121 l 35 17 b 51 0 35 4 39 0 z m 147 544 l 147 999 b 158 1010 147 1007 150 1010 b 203 996 181 1010 192 1007 b 221 768 217 982 221 956 b 203 546 221 579 218 563 b 163 533 193 538 183 533 l 158 533 b 147 544 150 533 147 536 z "},"Q":{"ha":372,"x_min":0,"x_max":0,"o":"m 256 -217 b 326 -212 276 -217 307 -214 b 343 -194 339 -212 343 -207 l 343 -122 b 326 -104 343 -108 339 -104 l 276 -104 b 254 -82 260 -104 254 -96 l 254 -3 b 307 22 278 3 296 11 b 347 557 340 57 347 78 b 304 1088 347 1039 338 1053 b 190 1121 282 1110 240 1121 b 76 1088 139 1121 99 1110 b 33 557 42 1053 33 1039 b 75 24 33 78 40 58 b 139 -6 89 10 111 0 l 139 -85 b 256 -217 139 -187 169 -217 z m 190 108 b 163 117 178 108 168 111 b 149 557 150 129 149 136 b 164 996 149 976 151 983 b 190 1003 169 1000 181 1003 b 218 994 201 1003 213 1000 b 231 557 229 982 231 976 b 218 117 231 136 229 129 b 190 108 213 111 201 108 z "},"R":{"ha":364,"x_min":0,"x_max":0,"o":"m 51 0 l 132 0 b 149 17 144 0 149 4 l 149 422 b 160 433 149 431 151 433 l 171 433 b 199 422 182 433 190 432 b 215 343 210 411 215 390 l 215 17 b 232 0 215 4 219 0 l 311 0 b 329 17 324 0 329 4 l 329 304 b 290 474 329 410 325 436 b 276 496 283 481 276 488 b 292 522 276 504 285 513 b 339 783 321 558 339 601 b 290 1094 338 1017 324 1061 b 183 1125 267 1118 235 1125 l 51 1125 b 35 1108 39 1125 35 1121 l 35 17 b 51 0 35 4 39 0 z m 147 567 b 150 999 146 650 149 882 b 161 1010 150 1007 153 1010 l 171 1010 b 204 999 186 1010 196 1006 b 222 782 221 982 222 958 b 197 568 222 617 218 588 b 168 556 189 558 181 556 l 158 556 b 147 567 150 556 147 558 z "},"S":{"ha":338,"x_min":0,"x_max":0,"o":"m 179 -12 b 276 17 229 -11 261 0 b 319 288 304 43 319 75 b 267 569 319 486 314 517 b 210 621 253 585 231 603 b 164 665 193 635 174 651 b 136 853 138 697 136 708 b 146 994 136 953 136 985 b 172 1004 153 1001 161 1004 b 196 996 182 1004 190 1001 b 210 750 206 986 206 957 b 228 733 210 738 215 733 l 304 733 b 321 750 317 733 321 738 b 281 1092 318 1033 310 1061 b 171 1122 260 1111 224 1122 b 64 1092 119 1122 83 1111 b 22 858 36 1065 22 1026 b 81 564 22 654 33 619 b 135 513 94 547 115 529 b 176 472 150 499 165 486 b 206 281 200 442 204 421 b 193 113 207 147 206 124 b 168 104 188 107 179 104 b 143 114 157 104 149 108 b 128 390 132 125 131 151 b 110 408 126 403 122 408 l 33 408 b 17 390 21 408 17 403 b 61 19 21 82 32 47 b 179 -12 81 -1 118 -14 z "},"ẞ":{"ha":700,"x_min":0,"x_max":0,"o":"m 179 -12 b 276 17 229 -11 261 0 b 319 288 304 43 319 75 b 267 569 319 486 314 517 b 210 621 253 585 231 603 b 164 665 193 635 174 651 b 136 853 138 697 136 708 b 146 994 136 953 136 985 b 172 1004 153 1001 161 1004 b 196 996 182 1004 190 1001 b 210 750 206 986 206 957 b 228 733 210 738 215 733 l 304 733 b 321 750 317 733 321 738 b 281 1092 318 1033 310 1061 b 171 1122 260 1111 224 1122 b 64 1092 119 1122 83 1111 b 22 858 36 1065 22 1026 b 81 564 22 654 33 619 b 135 513 94 547 115 529 b 176 472 150 499 165 486 b 206 281 200 442 204 421 b 193 113 207 147 206 124 b 168 104 188 107 179 104 b 143 114 157 104 149 108 b 128 390 132 125 131 151 b 110 408 126 403 122 408 l 33 408 b 17 390 21 408 17 403 b 61 19 21 82 32 47 b 179 -12 81 -1 118 -14 z m 542 -12 b 639 17 592 -11 624 0 b 682 288 667 43 682 75 b 629 569 682 486 676 517 b 572 621 615 585 593 603 b 526 665 556 635 536 651 b 499 853 500 697 499 708 b 508 994 499 953 499 985 b 535 1004 515 1001 524 1004 b 558 996 544 1004 553 1001 b 572 750 568 986 568 957 b 590 733 572 738 578 733 l 667 733 b 683 750 679 733 683 738 b 643 1092 681 1033 672 1061 b 533 1122 622 1111 586 1122 b 426 1092 482 1122 446 1111 b 385 858 399 1065 385 1026 b 443 564 385 654 396 619 b 497 513 457 547 478 529 b 539 472 513 499 528 486 b 568 281 563 442 567 421 b 556 113 569 147 568 124 b 531 104 550 107 542 104 b 506 114 519 104 511 108 b 490 390 494 125 493 151 b 472 408 489 403 485 408 l 396 408 b 379 390 383 408 379 403 b 424 19 383 82 394 47 b 542 -12 443 -1 481 -14 z "},"T":{"ha":328,"x_min":0,"x_max":0,"o":"m 124 0 b 203 0 149 -1 175 -1 b 219 17 215 0 219 4 l 218 1001 b 229 1013 218 1010 221 1013 l 304 1010 b 322 1026 318 1010 322 1014 l 322 1108 b 304 1126 322 1121 318 1125 b 24 1126 217 1128 117 1128 b 7 1108 11 1125 7 1121 l 7 1026 b 24 1010 7 1014 11 1010 l 101 1013 b 113 1001 110 1013 113 1010 b 106 17 108 740 106 222 b 124 0 106 4 110 0 z "},"U":{"ha":361,"x_min":0,"x_max":0,"o":"m 186 -11 b 293 18 235 -11 271 -4 b 331 343 328 54 331 71 l 329 1108 b 313 1125 329 1121 325 1125 l 233 1125 b 215 1108 219 1125 215 1121 b 217 342 215 936 214 674 b 208 114 218 135 218 125 b 186 106 203 108 194 106 b 158 114 172 106 164 108 b 146 338 146 126 146 136 b 150 1108 146 686 150 960 b 133 1125 150 1121 146 1125 l 51 1125 b 35 1108 39 1125 35 1121 b 32 336 35 932 32 669 b 72 18 32 75 38 54 b 186 -11 96 -4 135 -11 z "},"Ú":{"ha":361,"x_min":0,"x_max":0,"o":"m 186 -11 b 293 18 235 -11 271 -4 b 331 343 328 54 331 71 l 329 1108 b 313 1125 329 1121 325 1125 l 233 1125 b 215 1108 219 1125 215 1121 b 217 342 215 936 214 674 b 208 114 218 135 218 125 b 186 106 203 108 194 106 b 158 114 172 106 164 108 b 146 338 146 126 146 136 b 150 1108 146 686 150 960 b 133 1125 150 1121 146 1125 l 51 1125 b 35 1108 39 1125 35 1121 b 32 336 35 932 32 669 b 72 18 32 75 38 54 b 186 -11 96 -4 135 -11 z m 129 1168 l 192 1168 b 208 1179 200 1168 204 1171 l 275 1322 b 268 1332 278 1329 276 1332 l 190 1332 b 175 1321 182 1332 179 1329 l 121 1179 b 129 1168 118 1171 121 1168 z "},"Û":{"ha":361,"x_min":0,"x_max":0,"o":"m 186 -11 b 293 18 235 -11 271 -4 b 331 343 328 54 331 71 l 329 1108 b 313 1125 329 1121 325 1125 l 233 1125 b 215 1108 219 1125 215 1121 b 217 342 215 936 214 674 b 208 114 218 135 218 125 b 186 106 203 108 194 106 b 158 114 172 106 164 108 b 146 338 146 126 146 136 b 150 1108 146 686 150 960 b 133 1125 150 1121 146 1125 l 51 1125 b 35 1108 39 1125 35 1121 b 32 336 35 932 32 669 b 72 18 32 75 38 54 b 186 -11 96 -4 135 -11 z m 125 1321 l 74 1178 b 81 1167 71 1169 72 1167 l 149 1167 b 164 1178 157 1167 161 1169 l 182 1235 l 200 1178 b 215 1167 203 1169 207 1167 l 282 1167 b 290 1178 290 1167 293 1169 l 238 1321 b 222 1332 235 1329 231 1332 l 140 1332 b 125 1321 132 1332 128 1329 z "},"Ü":{"ha":361,"x_min":0,"x_max":0,"o":"m 186 -11 b 293 18 235 -11 271 -4 b 331 343 328 54 331 71 l 329 1108 b 313 1125 329 1121 325 1125 l 233 1125 b 215 1108 219 1125 215 1121 b 217 342 215 936 214 674 b 208 114 218 135 218 125 b 186 106 203 108 194 106 b 158 114 172 106 164 108 b 146 338 146 126 146 136 b 150 1108 146 686 150 960 b 133 1125 150 1121 146 1125 l 51 1125 b 35 1108 39 1125 35 1121 b 32 336 35 932 32 669 b 72 18 32 75 38 54 b 186 -11 96 -4 135 -11 z m 213 1183 l 275 1183 b 292 1200 288 1183 292 1188 l 292 1290 b 275 1307 292 1303 288 1307 l 213 1307 b 196 1290 200 1307 196 1303 l 196 1200 b 213 1183 196 1188 200 1183 z m 92 1183 l 151 1183 b 168 1200 164 1183 168 1188 l 168 1290 b 151 1307 168 1303 164 1307 l 92 1307 b 75 1290 79 1307 75 1303 l 75 1200 b 92 1183 75 1188 79 1183 z "},"Ù":{"ha":361,"x_min":0,"x_max":0,"o":"m 186 -11 b 293 18 235 -11 271 -4 b 331 343 328 54 331 71 l 329 1108 b 313 1125 329 1121 325 1125 l 233 1125 b 215 1108 219 1125 215 1121 b 217 342 215 936 214 674 b 208 114 218 135 218 125 b 186 106 203 108 194 106 b 158 114 172 106 164 108 b 146 338 146 126 146 136 b 150 1108 146 686 150 960 b 133 1125 150 1121 146 1125 l 51 1125 b 35 1108 39 1125 35 1121 b 32 336 35 932 32 669 b 72 18 32 75 38 54 b 186 -11 96 -4 135 -11 z m 229 1179 l 183 1321 b 169 1332 182 1329 178 1332 l 90 1332 b 83 1322 82 1332 81 1329 l 144 1179 b 160 1168 147 1171 151 1168 l 222 1168 b 229 1179 231 1168 232 1171 z "},"V":{"ha":332,"x_min":0,"x_max":0,"o":"m 100 0 b 228 -1 135 -3 193 -3 b 240 11 236 0 239 3 b 314 1100 271 301 308 840 b 303 1111 314 1108 311 1111 l 219 1111 b 208 1100 211 1111 208 1108 b 179 306 203 910 190 538 b 171 283 178 286 178 283 b 165 306 168 283 165 285 b 136 1100 153 532 139 904 b 124 1111 135 1108 132 1111 b 42 1113 99 1113 68 1114 b 31 1100 33 1111 31 1108 b 88 13 33 863 57 282 b 100 0 89 4 92 1 z "},"W":{"ha":507,"x_min":0,"x_max":0,"o":"m 79 0 b 190 -1 110 -3 158 -3 b 201 11 199 0 201 3 b 250 775 221 238 236 547 b 260 771 253 783 260 782 b 319 11 272 539 297 210 b 332 0 319 3 324 0 b 426 -1 358 -1 400 -3 b 438 11 435 0 438 3 b 485 1101 454 319 479 817 b 474 1113 485 1110 482 1113 b 401 1111 453 1114 421 1113 b 390 1100 393 1111 390 1108 b 371 321 385 888 381 589 b 361 324 368 311 363 313 b 308 1100 346 594 325 901 b 296 1111 308 1108 304 1111 b 221 1111 275 1113 246 1113 b 210 1100 213 1111 210 1108 b 161 319 199 900 178 597 b 151 324 157 311 151 313 b 131 1100 143 600 138 903 b 119 1111 131 1108 128 1111 l 39 1111 b 28 1100 31 1111 28 1108 b 68 11 29 844 44 440 b 79 0 68 3 71 0 z "},"Ẃ":{"ha":507,"x_min":0,"x_max":0,"o":"m 79 0 b 190 -1 110 -3 158 -3 b 201 11 199 0 201 3 b 250 775 221 238 236 547 b 260 771 253 783 260 782 b 319 11 272 539 297 210 b 332 0 319 3 324 0 b 426 -1 358 -1 400 -3 b 438 11 435 0 438 3 b 485 1101 454 319 479 817 b 474 1113 485 1110 482 1113 b 401 1111 453 1114 421 1113 b 390 1100 393 1111 390 1108 b 371 321 385 888 381 589 b 361 324 368 311 363 313 b 308 1100 346 594 325 901 b 296 1111 308 1108 304 1111 b 221 1111 275 1113 246 1113 b 210 1100 213 1111 210 1108 b 161 319 199 900 178 597 b 151 324 157 311 151 313 b 131 1100 143 600 138 903 b 119 1111 131 1108 128 1111 l 39 1111 b 28 1100 31 1111 28 1108 b 68 11 29 844 44 440 b 79 0 68 3 71 0 z m 175 1153 l 238 1153 b 254 1164 246 1153 250 1156 l 321 1307 b 314 1317 324 1314 322 1317 l 236 1317 b 221 1306 228 1317 225 1314 l 167 1164 b 175 1153 164 1156 167 1153 z "},"Ŵ":{"ha":507,"x_min":0,"x_max":0,"o":"m 79 0 b 190 -1 110 -3 158 -3 b 201 11 199 0 201 3 b 250 775 221 238 236 547 b 260 771 253 783 260 782 b 319 11 272 539 297 210 b 332 0 319 3 324 0 b 426 -1 358 -1 400 -3 b 438 11 435 0 438 3 b 485 1101 454 319 479 817 b 474 1113 485 1110 482 1113 b 401 1111 453 1114 421 1113 b 390 1100 393 1111 390 1108 b 371 321 385 888 381 589 b 361 324 368 311 363 313 b 308 1100 346 594 325 901 b 296 1111 308 1108 304 1111 b 221 1111 275 1113 246 1113 b 210 1100 213 1111 210 1108 b 161 319 199 900 178 597 b 151 324 157 311 151 313 b 131 1100 143 600 138 903 b 119 1111 131 1108 128 1111 l 39 1111 b 28 1100 31 1111 28 1108 b 68 11 29 844 44 440 b 79 0 68 3 71 0 z m 172 1306 l 121 1163 b 128 1151 118 1154 119 1151 l 196 1151 b 211 1163 204 1151 208 1154 l 229 1219 l 247 1163 b 263 1151 250 1154 254 1151 l 329 1151 b 338 1163 338 1151 340 1154 l 285 1306 b 269 1317 282 1314 278 1317 l 188 1317 b 172 1306 179 1317 175 1314 z "},"Ẅ":{"ha":507,"x_min":0,"x_max":0,"o":"m 79 0 b 190 -1 110 -3 158 -3 b 201 11 199 0 201 3 b 250 775 221 238 236 547 b 260 771 253 783 260 782 b 319 11 272 539 297 210 b 332 0 319 3 324 0 b 426 -1 358 -1 400 -3 b 438 11 435 0 438 3 b 485 1101 454 319 479 817 b 474 1113 485 1110 482 1113 b 401 1111 453 1114 421 1113 b 390 1100 393 1111 390 1108 b 371 321 385 888 381 589 b 361 324 368 311 363 313 b 308 1100 346 594 325 901 b 296 1111 308 1108 304 1111 b 221 1111 275 1113 246 1113 b 210 1100 213 1111 210 1108 b 161 319 199 900 178 597 b 151 324 157 311 151 313 b 131 1100 143 600 138 903 b 119 1111 131 1108 128 1111 l 39 1111 b 28 1100 31 1111 28 1108 b 68 11 29 844 44 440 b 79 0 68 3 71 0 z m 258 1168 l 321 1168 b 338 1185 333 1168 338 1172 l 338 1275 b 321 1292 338 1288 333 1292 l 258 1292 b 242 1275 246 1292 242 1288 l 242 1185 b 258 1168 242 1172 246 1168 z m 138 1168 l 197 1168 b 214 1185 210 1168 214 1172 l 214 1275 b 197 1292 214 1288 210 1292 l 138 1292 b 121 1275 125 1292 121 1288 l 121 1185 b 138 1168 121 1172 125 1168 z "},"Ẁ":{"ha":507,"x_min":0,"x_max":0,"o":"m 79 0 b 190 -1 110 -3 158 -3 b 201 11 199 0 201 3 b 250 775 221 238 236 547 b 260 771 253 783 260 782 b 319 11 272 539 297 210 b 332 0 319 3 324 0 b 426 -1 358 -1 400 -3 b 438 11 435 0 438 3 b 485 1101 454 319 479 817 b 474 1113 485 1110 482 1113 b 401 1111 453 1114 421 1113 b 390 1100 393 1111 390 1108 b 371 321 385 888 381 589 b 361 324 368 311 363 313 b 308 1100 346 594 325 901 b 296 1111 308 1108 304 1111 b 221 1111 275 1113 246 1113 b 210 1100 213 1111 210 1108 b 161 319 199 900 178 597 b 151 324 157 311 151 313 b 131 1100 143 600 138 903 b 119 1111 131 1108 128 1111 l 39 1111 b 28 1100 31 1111 28 1108 b 68 11 29 844 44 440 b 79 0 68 3 71 0 z m 275 1164 l 229 1306 b 215 1317 228 1314 224 1317 l 136 1317 b 129 1307 128 1317 126 1314 l 190 1164 b 206 1153 193 1156 197 1153 l 268 1153 b 275 1164 276 1153 278 1156 z "},"X":{"ha":321,"x_min":0,"x_max":0,"o":"m 18 0 l 100 0 b 113 11 108 0 111 3 l 151 460 b 161 458 153 465 161 465 l 201 11 b 214 0 203 3 206 0 b 300 0 247 -1 269 -1 b 311 11 308 0 311 3 b 250 569 299 165 267 408 b 250 603 249 582 249 590 b 313 1100 268 744 296 936 b 303 1111 314 1108 311 1111 l 225 1111 b 213 1100 217 1111 213 1108 l 176 763 b 165 765 175 758 167 758 b 132 1100 156 871 142 1015 b 119 1111 131 1108 128 1111 b 26 1111 92 1113 51 1113 b 17 1099 18 1110 15 1107 b 76 646 28 999 58 789 b 76 613 78 633 78 625 b 8 11 54 443 24 178 b 18 0 7 3 10 0 z "},"Y":{"ha":301,"x_min":0,"x_max":0,"o":"m 110 0 b 192 0 133 -1 167 -1 b 210 18 206 1 210 6 l 208 350 b 210 372 208 358 208 364 b 300 1100 244 600 285 903 b 290 1111 301 1108 299 1111 b 207 1111 263 1113 235 1113 b 196 1100 199 1111 196 1108 b 165 671 189 975 176 792 b 153 672 163 667 154 667 l 117 1100 b 104 1111 117 1108 113 1111 l 18 1111 b 7 1100 10 1111 7 1108 b 90 392 19 907 56 636 b 92 369 92 383 92 378 l 92 18 b 110 0 92 6 96 1 z "},"Ý":{"ha":301,"x_min":0,"x_max":0,"o":"m 110 0 b 192 0 133 -1 167 -1 b 210 18 206 1 210 6 l 208 350 b 210 372 208 358 208 364 b 300 1100 244 600 285 903 b 290 1111 301 1108 299 1111 b 207 1111 263 1113 235 1113 b 196 1100 199 1111 196 1108 b 165 671 189 975 176 792 b 153 672 163 667 154 667 l 117 1100 b 104 1111 117 1108 113 1111 l 18 1111 b 7 1100 10 1111 7 1108 b 90 392 19 907 56 636 b 92 369 92 383 92 378 l 92 18 b 110 0 92 6 96 1 z m 99 1153 l 161 1153 b 178 1164 169 1153 174 1156 l 244 1307 b 238 1317 247 1314 246 1317 l 160 1317 b 144 1306 151 1317 149 1314 l 90 1164 b 99 1153 88 1156 90 1153 z "},"Ŷ":{"ha":301,"x_min":0,"x_max":0,"o":"m 110 0 b 192 0 133 -1 167 -1 b 210 18 206 1 210 6 l 208 350 b 210 372 208 358 208 364 b 300 1100 244 600 285 903 b 290 1111 301 1108 299 1111 b 207 1111 263 1113 235 1113 b 196 1100 199 1111 196 1108 b 165 671 189 975 176 792 b 153 672 163 667 154 667 l 117 1100 b 104 1111 117 1108 113 1111 l 18 1111 b 7 1100 10 1111 7 1108 b 90 392 19 907 56 636 b 92 369 92 383 92 378 l 92 18 b 110 0 92 6 96 1 z m 96 1306 l 44 1163 b 51 1151 42 1154 43 1151 l 119 1151 b 135 1163 128 1151 132 1154 l 153 1219 l 171 1163 b 186 1151 174 1154 178 1151 l 253 1151 b 261 1163 261 1151 264 1154 l 208 1306 b 193 1317 206 1314 201 1317 l 111 1317 b 96 1306 103 1317 99 1314 z "},"Ÿ":{"ha":301,"x_min":0,"x_max":0,"o":"m 110 0 b 192 0 133 -1 167 -1 b 210 18 206 1 210 6 l 208 350 b 210 372 208 358 208 364 b 300 1100 244 600 285 903 b 290 1111 301 1108 299 1111 b 207 1111 263 1113 235 1113 b 196 1100 199 1111 196 1108 b 165 671 189 975 176 792 b 153 672 163 667 154 667 l 117 1100 b 104 1111 117 1108 113 1111 l 18 1111 b 7 1100 10 1111 7 1108 b 90 392 19 907 56 636 b 92 369 92 383 92 378 l 92 18 b 110 0 92 6 96 1 z m 183 1168 l 246 1168 b 263 1185 258 1168 263 1172 l 263 1275 b 246 1292 263 1288 258 1292 l 183 1292 b 167 1275 171 1292 167 1288 l 167 1185 b 183 1168 167 1172 171 1168 z m 63 1168 l 122 1168 b 139 1185 135 1168 139 1172 l 139 1275 b 122 1292 139 1288 135 1292 l 63 1292 b 46 1275 50 1292 46 1288 l 46 1185 b 63 1168 46 1172 50 1168 z "},"Ỳ":{"ha":301,"x_min":0,"x_max":0,"o":"m 110 0 b 192 0 133 -1 167 -1 b 210 18 206 1 210 6 l 208 350 b 210 372 208 358 208 364 b 300 1100 244 600 285 903 b 290 1111 301 1108 299 1111 b 207 1111 263 1113 235 1113 b 196 1100 199 1111 196 1108 b 165 671 189 975 176 792 b 153 672 163 667 154 667 l 117 1100 b 104 1111 117 1108 113 1111 l 18 1111 b 7 1100 10 1111 7 1108 b 90 392 19 907 56 636 b 92 369 92 383 92 378 l 92 18 b 110 0 92 6 96 1 z m 200 1164 l 154 1306 b 140 1317 153 1314 149 1317 l 61 1317 b 54 1307 53 1317 51 1314 l 115 1164 b 131 1153 118 1156 122 1153 l 193 1153 b 200 1164 201 1153 203 1156 z "},"Z":{"ha":260,"x_min":0,"x_max":0,"o":"m 33 0 b 225 0 81 -1 158 -1 b 242 17 238 0 242 4 l 244 101 b 228 118 244 114 240 118 l 138 118 b 128 129 129 118 128 121 b 239 990 164 397 207 736 b 240 1014 240 999 240 1006 l 240 1094 b 222 1111 240 1107 236 1111 b 33 1111 164 1113 92 1113 b 15 1094 19 1111 15 1107 l 15 1007 b 33 990 15 994 19 990 l 117 992 b 126 982 125 993 128 990 l 17 133 l 15 111 l 15 17 b 33 0 15 4 19 0 z "},"a":{"ha":329,"x_min":0,"x_max":0,"o":"m 104 -10 b 176 33 129 -10 153 7 b 200 25 190 51 197 50 l 201 17 b 219 0 203 4 207 0 l 282 0 b 299 17 294 0 299 4 l 294 722 b 260 960 294 885 292 928 b 167 988 240 978 207 988 b 63 958 119 988 81 976 b 21 689 32 928 26 881 b 38 671 21 675 25 671 l 113 672 b 131 690 125 672 129 676 b 143 867 135 853 136 858 b 160 874 149 872 156 874 b 176 868 167 874 172 872 b 185 739 185 860 185 850 l 183 629 b 175 613 183 621 182 617 l 143 593 b 72 547 100 568 83 558 b 22 294 32 506 22 479 b 58 7 22 64 25 42 b 104 -10 69 -4 88 -10 z m 153 118 b 142 124 147 118 146 119 b 133 290 135 131 133 143 b 153 465 133 440 136 450 b 171 479 158 471 165 475 l 175 483 b 185 478 182 488 185 486 b 174 132 186 146 185 146 b 153 118 167 124 158 118 z "},"á":{"ha":329,"x_min":0,"x_max":0,"o":"m 104 -10 b 176 33 129 -10 153 7 b 200 25 190 51 197 50 l 201 17 b 219 0 203 4 207 0 l 282 0 b 299 17 294 0 299 4 l 294 722 b 260 960 294 885 292 928 b 167 988 240 978 207 988 b 63 958 119 988 81 976 b 21 689 32 928 26 881 b 38 671 21 675 25 671 l 113 672 b 131 690 125 672 129 676 b 143 867 135 853 136 858 b 160 874 149 872 156 874 b 176 868 167 874 172 872 b 185 739 185 860 185 850 l 183 629 b 175 613 183 621 182 617 l 143 593 b 72 547 100 568 83 558 b 22 294 32 506 22 479 b 58 7 22 64 25 42 b 104 -10 69 -4 88 -10 z m 153 118 b 142 124 147 118 146 119 b 133 290 135 131 133 143 b 153 465 133 440 136 450 b 171 479 158 471 165 475 l 175 483 b 185 478 182 488 185 486 b 174 132 186 146 185 146 b 153 118 167 124 158 118 z m 114 1017 l 176 1017 b 193 1028 185 1017 189 1019 l 260 1171 b 253 1181 263 1178 261 1181 l 175 1181 b 160 1169 167 1181 164 1178 l 106 1028 b 114 1017 103 1019 106 1017 z "},"â":{"ha":329,"x_min":0,"x_max":0,"o":"m 104 -10 b 176 33 129 -10 153 7 b 200 25 190 51 197 50 l 201 17 b 219 0 203 4 207 0 l 282 0 b 299 17 294 0 299 4 l 294 722 b 260 960 294 885 292 928 b 167 988 240 978 207 988 b 63 958 119 988 81 976 b 21 689 32 928 26 881 b 38 671 21 675 25 671 l 113 672 b 131 690 125 672 129 676 b 143 867 135 853 136 858 b 160 874 149 872 156 874 b 176 868 167 874 172 872 b 185 739 185 860 185 850 l 183 629 b 175 613 183 621 182 617 l 143 593 b 72 547 100 568 83 558 b 22 294 32 506 22 479 b 58 7 22 64 25 42 b 104 -10 69 -4 88 -10 z m 153 118 b 142 124 147 118 146 119 b 133 290 135 131 133 143 b 153 465 133 440 136 450 b 171 479 158 471 165 475 l 175 483 b 185 478 182 488 185 486 b 174 132 186 146 185 146 b 153 118 167 124 158 118 z m 111 1169 l 60 1026 b 67 1015 57 1018 58 1015 l 135 1015 b 150 1026 143 1015 147 1018 l 168 1083 l 186 1026 b 201 1015 189 1018 193 1015 l 268 1015 b 276 1026 276 1015 279 1018 l 224 1169 b 208 1181 221 1178 217 1181 l 126 1181 b 111 1169 118 1181 114 1178 z "},"ä":{"ha":329,"x_min":0,"x_max":0,"o":"m 104 -10 b 176 33 129 -10 153 7 b 200 25 190 51 197 50 l 201 17 b 219 0 203 4 207 0 l 282 0 b 299 17 294 0 299 4 l 294 722 b 260 960 294 885 292 928 b 167 988 240 978 207 988 b 63 958 119 988 81 976 b 21 689 32 928 26 881 b 38 671 21 675 25 671 l 113 672 b 131 690 125 672 129 676 b 143 867 135 853 136 858 b 160 874 149 872 156 874 b 176 868 167 874 172 872 b 185 739 185 860 185 850 l 183 629 b 175 613 183 621 182 617 l 143 593 b 72 547 100 568 83 558 b 22 294 32 506 22 479 b 58 7 22 64 25 42 b 104 -10 69 -4 88 -10 z m 153 118 b 142 124 147 118 146 119 b 133 290 135 131 133 143 b 153 465 133 440 136 450 b 171 479 158 471 165 475 l 175 483 b 185 478 182 488 185 486 b 174 132 186 146 185 146 b 153 118 167 124 158 118 z m 199 1032 l 261 1032 b 278 1049 274 1032 278 1036 l 278 1139 b 261 1156 278 1151 274 1156 l 199 1156 b 182 1139 186 1156 182 1151 l 182 1049 b 199 1032 182 1036 186 1032 z m 78 1032 l 138 1032 b 154 1049 150 1032 154 1036 l 154 1139 b 138 1156 154 1151 150 1156 l 78 1156 b 61 1139 65 1156 61 1151 l 61 1049 b 78 1032 61 1036 65 1032 z "},"à":{"ha":329,"x_min":0,"x_max":0,"o":"m 104 -10 b 176 33 129 -10 153 7 b 200 25 190 51 197 50 l 201 17 b 219 0 203 4 207 0 l 282 0 b 299 17 294 0 299 4 l 294 722 b 260 960 294 885 292 928 b 167 988 240 978 207 988 b 63 958 119 988 81 976 b 21 689 32 928 26 881 b 38 671 21 675 25 671 l 113 672 b 131 690 125 672 129 676 b 143 867 135 853 136 858 b 160 874 149 872 156 874 b 176 868 167 874 172 872 b 185 739 185 860 185 850 l 183 629 b 175 613 183 621 182 617 l 143 593 b 72 547 100 568 83 558 b 22 294 32 506 22 479 b 58 7 22 64 25 42 b 104 -10 69 -4 88 -10 z m 153 118 b 142 124 147 118 146 119 b 133 290 135 131 133 143 b 153 465 133 440 136 450 b 171 479 158 471 165 475 l 175 483 b 185 478 182 488 185 486 b 174 132 186 146 185 146 b 153 118 167 124 158 118 z m 215 1028 l 169 1169 b 156 1181 168 1178 164 1181 l 76 1181 b 69 1171 68 1181 67 1178 l 131 1028 b 146 1017 133 1019 138 1017 l 208 1017 b 215 1028 217 1017 218 1019 z "},"å":{"ha":329,"x_min":0,"x_max":0,"o":"m 104 -10 b 176 33 129 -10 153 7 b 200 25 190 51 197 50 l 201 17 b 219 0 203 4 207 0 l 282 0 b 299 17 294 0 299 4 l 294 722 b 260 960 294 885 292 928 b 167 988 240 978 207 988 b 63 958 119 988 81 976 b 21 689 32 928 26 881 b 38 671 21 675 25 671 l 113 672 b 131 690 125 672 129 676 b 143 867 135 853 136 858 b 160 874 149 872 156 874 b 176 868 167 874 172 872 b 185 739 185 860 185 850 l 183 629 b 175 613 183 621 182 617 l 143 593 b 72 547 100 568 83 558 b 22 294 32 506 22 479 b 58 7 22 64 25 42 b 104 -10 69 -4 88 -10 z m 153 118 b 142 124 147 118 146 119 b 133 290 135 131 133 143 b 153 465 133 440 136 450 b 171 479 158 471 165 475 l 175 483 b 185 478 182 488 185 486 b 174 132 186 146 185 146 b 153 118 167 124 158 118 z m 169 1004 b 265 1108 231 1004 265 1046 b 169 1213 265 1169 231 1213 b 75 1108 110 1213 75 1168 b 169 1004 75 1047 110 1004 z m 171 1064 b 151 1108 157 1064 151 1074 b 171 1150 151 1140 157 1150 b 189 1108 183 1150 189 1140 b 171 1064 189 1074 183 1064 z "},"ã":{"ha":329,"x_min":0,"x_max":0,"o":"m 104 -10 b 176 33 129 -10 153 7 b 200 25 190 51 197 50 l 201 17 b 219 0 203 4 207 0 l 282 0 b 299 17 294 0 299 4 l 294 722 b 260 960 294 885 292 928 b 167 988 240 978 207 988 b 63 958 119 988 81 976 b 21 689 32 928 26 881 b 38 671 21 675 25 671 l 113 672 b 131 690 125 672 129 676 b 143 867 135 853 136 858 b 160 874 149 872 156 874 b 176 868 167 874 172 872 b 185 739 185 860 185 850 l 183 629 b 175 613 183 621 182 617 l 143 593 b 72 547 100 568 83 558 b 22 294 32 506 22 479 b 58 7 22 64 25 42 b 104 -10 69 -4 88 -10 z m 153 118 b 142 124 147 118 146 119 b 133 290 135 131 133 143 b 153 465 133 440 136 450 b 171 479 158 471 165 475 l 175 483 b 185 478 182 488 185 486 b 174 132 186 146 185 146 b 153 118 167 124 158 118 z m 211 1018 b 265 1039 233 1018 253 1028 b 272 1060 271 1046 272 1051 l 272 1124 b 264 1126 272 1132 271 1133 b 214 1101 243 1106 235 1101 b 175 1113 203 1101 189 1107 b 124 1128 161 1119 143 1128 b 68 1104 101 1128 81 1118 b 61 1085 63 1099 61 1093 l 61 1018 b 68 1015 61 1010 63 1010 b 118 1043 92 1040 100 1043 b 161 1032 132 1043 146 1038 b 211 1018 175 1025 192 1018 z "},"æ":{"ha":486,"x_min":0,"x_max":0,"o":"m 104 -10 b 176 33 129 -10 153 7 b 200 25 190 51 197 50 l 201 17 b 219 0 203 4 207 0 l 254 0 b 326 -12 274 -8 297 -12 b 426 18 371 -12 406 -4 b 464 371 454 44 461 74 b 447 388 465 383 460 388 l 376 388 b 358 371 363 388 358 383 b 346 111 356 129 356 121 b 325 104 340 106 332 104 b 307 110 318 104 310 106 b 297 160 303 114 300 118 l 296 479 b 306 483 297 482 300 483 l 447 483 b 464 501 460 483 464 488 b 425 957 463 893 464 921 b 325 986 406 976 371 986 b 246 969 293 986 267 981 b 167 988 226 982 199 988 b 63 958 119 988 81 976 b 21 689 32 928 26 881 b 38 671 21 675 25 671 l 113 672 b 131 690 125 672 129 676 b 143 867 135 853 136 858 b 160 874 149 872 156 874 b 176 868 167 874 172 872 b 185 739 185 860 185 850 l 183 629 b 175 613 183 621 182 617 l 143 593 b 72 547 100 568 83 558 b 22 294 32 506 22 479 b 58 7 22 64 25 42 b 104 -10 69 -4 88 -10 z m 153 118 b 142 124 147 118 146 119 b 133 290 135 131 133 143 b 153 465 133 440 136 450 b 171 479 158 471 165 475 l 175 483 b 183 485 179 486 182 486 l 183 476 l 185 246 b 174 132 185 144 181 142 b 153 118 167 124 158 118 z m 294 658 b 306 867 296 854 299 860 b 325 872 310 869 318 872 b 346 867 333 872 342 869 b 358 600 353 858 356 853 b 347 589 358 592 356 589 l 306 589 b 296 594 300 589 296 590 z "},"b":{"ha":354,"x_min":0,"x_max":0,"o":"m 233 -11 b 292 13 258 -11 274 -4 b 325 508 322 43 325 75 b 292 964 325 900 324 931 b 233 988 278 979 257 988 b 161 946 204 988 183 969 b 138 956 144 929 138 932 b 140 1150 138 1000 140 1068 b 124 1167 140 1163 136 1167 l 50 1167 b 33 1150 38 1167 33 1163 l 32 490 b 33 17 32 247 32 122 b 50 0 33 4 38 0 l 101 0 b 119 17 115 0 119 4 l 119 13 b 149 26 121 36 129 40 b 233 -11 194 -4 217 -11 z m 189 117 b 167 129 182 117 174 121 b 143 496 149 149 143 154 b 160 847 143 819 143 829 b 185 858 167 853 174 858 b 201 851 190 858 196 857 b 213 507 211 842 213 833 b 204 124 213 140 213 132 b 189 117 199 118 193 117 z "},"c":{"ha":344,"x_min":0,"x_max":0,"o":"m 175 -14 b 283 15 225 -14 264 -4 b 319 406 314 47 315 61 b 303 422 321 418 315 422 l 229 422 b 211 406 215 422 211 418 b 196 111 206 118 206 121 b 175 104 190 107 183 104 b 153 111 167 104 158 107 b 140 503 144 121 140 129 b 153 864 140 842 143 854 b 175 872 158 869 167 872 b 197 864 185 872 192 869 b 211 596 206 856 207 846 b 229 579 211 583 215 579 l 303 579 b 319 596 315 579 321 583 b 283 957 315 901 315 925 b 175 988 264 976 226 988 b 68 956 128 988 89 976 b 28 503 32 919 28 893 b 68 17 28 71 35 50 b 175 -14 88 -3 125 -14 z "},"ç":{"ha":344,"x_min":0,"x_max":0,"o":"m 28 503 b 68 17 28 71 35 50 b 124 -10 81 4 99 -4 l 85 -168 b 93 -179 82 -176 85 -179 l 165 -179 b 179 -168 174 -179 178 -176 l 210 -12 b 283 15 243 -8 268 0 b 319 406 314 47 315 61 b 303 422 321 418 315 422 l 229 422 b 211 406 215 422 211 418 b 196 111 206 118 206 121 b 175 104 190 107 183 104 b 153 111 167 104 158 107 b 140 503 144 121 140 129 b 153 864 140 842 143 854 b 175 872 158 869 167 872 b 197 864 185 872 192 869 b 211 596 206 856 207 846 b 229 579 211 583 215 579 l 303 579 b 319 596 315 579 321 583 b 283 957 315 901 315 925 b 175 988 264 976 226 988 b 68 956 128 988 89 976 b 28 503 32 919 28 893 z "},"d":{"ha":354,"x_min":0,"x_max":0,"o":"m 121 -11 b 206 26 138 -11 160 -4 b 235 13 225 40 233 36 l 235 17 b 253 0 235 4 239 0 l 304 0 b 321 17 317 0 321 4 b 322 490 322 122 322 247 l 321 1150 b 304 1167 321 1163 317 1167 l 231 1167 b 214 1150 218 1167 214 1163 b 217 956 214 1068 217 1000 b 193 946 217 932 210 929 b 121 988 171 969 150 988 b 63 964 97 988 76 979 b 29 508 31 931 29 900 b 63 13 29 75 32 43 b 121 -11 81 -4 96 -11 z m 165 117 b 150 124 161 117 156 118 b 142 507 142 132 142 140 b 153 851 142 833 143 842 b 169 858 158 857 164 858 b 194 847 181 858 188 853 b 211 496 211 829 211 819 b 188 129 211 154 206 149 b 165 117 181 121 172 117 z "},"e":{"ha":332,"x_min":0,"x_max":0,"o":"m 171 -12 b 271 18 215 -12 250 -4 b 308 371 299 44 306 74 b 292 388 310 383 304 388 l 221 388 b 203 371 207 388 203 383 b 190 111 200 129 200 121 b 169 104 185 106 176 104 b 151 110 163 104 154 106 b 139 472 142 119 140 126 b 150 483 139 481 142 483 l 292 483 b 308 501 304 483 308 488 b 269 957 307 893 308 921 b 169 986 250 976 215 986 b 71 956 126 986 92 975 b 28 476 33 919 29 892 b 71 19 28 83 35 56 b 171 -12 90 -1 124 -12 z m 139 600 b 150 867 140 853 143 858 b 169 872 154 869 163 872 b 190 867 178 872 186 869 b 203 600 197 858 200 853 b 192 589 203 592 200 589 l 150 589 b 139 600 142 589 139 592 z "},"é":{"ha":332,"x_min":0,"x_max":0,"o":"m 171 -12 b 271 18 215 -12 250 -4 b 308 371 299 44 306 74 b 292 388 310 383 304 388 l 221 388 b 203 371 207 388 203 383 b 190 111 200 129 200 121 b 169 104 185 106 176 104 b 151 110 163 104 154 106 b 139 472 142 119 140 126 b 150 483 139 481 142 483 l 292 483 b 308 501 304 483 308 488 b 269 957 307 893 308 921 b 169 986 250 976 215 986 b 71 956 126 986 92 975 b 28 476 33 919 29 892 b 71 19 28 83 35 56 b 171 -12 90 -1 124 -12 z m 139 600 b 150 867 140 853 143 858 b 169 872 154 869 163 872 b 190 867 178 872 186 869 b 203 600 197 858 200 853 b 192 589 203 592 200 589 l 150 589 b 139 600 142 589 139 592 z m 117 1017 l 179 1017 b 196 1028 188 1017 192 1019 l 263 1171 b 256 1181 265 1178 264 1181 l 178 1181 b 163 1169 169 1181 167 1178 l 108 1028 b 117 1017 106 1019 108 1017 z "},"ê":{"ha":332,"x_min":0,"x_max":0,"o":"m 171 -12 b 271 18 215 -12 250 -4 b 308 371 299 44 306 74 b 292 388 310 383 304 388 l 221 388 b 203 371 207 388 203 383 b 190 111 200 129 200 121 b 169 104 185 106 176 104 b 151 110 163 104 154 106 b 139 472 142 119 140 126 b 150 483 139 481 142 483 l 292 483 b 308 501 304 483 308 488 b 269 957 307 893 308 921 b 169 986 250 976 215 986 b 71 956 126 986 92 975 b 28 476 33 919 29 892 b 71 19 28 83 35 56 b 171 -12 90 -1 124 -12 z m 139 600 b 150 867 140 853 143 858 b 169 872 154 869 163 872 b 190 867 178 872 186 869 b 203 600 197 858 200 853 b 192 589 203 592 200 589 l 150 589 b 139 600 142 589 139 592 z m 113 1169 l 61 1026 b 68 1015 58 1018 60 1015 l 136 1015 b 151 1026 144 1015 149 1018 l 169 1083 l 188 1026 b 203 1015 190 1018 194 1015 l 269 1015 b 278 1026 278 1015 281 1018 l 225 1169 b 210 1181 222 1178 218 1181 l 128 1181 b 113 1169 119 1181 115 1178 z "},"ë":{"ha":332,"x_min":0,"x_max":0,"o":"m 171 -12 b 271 18 215 -12 250 -4 b 308 371 299 44 306 74 b 292 388 310 383 304 388 l 221 388 b 203 371 207 388 203 383 b 190 111 200 129 200 121 b 169 104 185 106 176 104 b 151 110 163 104 154 106 b 139 472 142 119 140 126 b 150 483 139 481 142 483 l 292 483 b 308 501 304 483 308 488 b 269 957 307 893 308 921 b 169 986 250 976 215 986 b 71 956 126 986 92 975 b 28 476 33 919 29 892 b 71 19 28 83 35 56 b 171 -12 90 -1 124 -12 z m 139 600 b 150 867 140 853 143 858 b 169 872 154 869 163 872 b 190 867 178 872 186 869 b 203 600 197 858 200 853 b 192 589 203 592 200 589 l 150 589 b 139 600 142 589 139 592 z m 200 1032 l 263 1032 b 279 1049 275 1032 279 1036 l 279 1139 b 263 1156 279 1151 275 1156 l 200 1156 b 183 1139 188 1156 183 1151 l 183 1049 b 200 1032 183 1036 188 1032 z m 79 1032 l 139 1032 b 156 1049 151 1032 156 1036 l 156 1139 b 139 1156 156 1151 151 1156 l 79 1156 b 63 1139 67 1156 63 1151 l 63 1049 b 79 1032 63 1036 67 1032 z "},"è":{"ha":332,"x_min":0,"x_max":0,"o":"m 171 -12 b 271 18 215 -12 250 -4 b 308 371 299 44 306 74 b 292 388 310 383 304 388 l 221 388 b 203 371 207 388 203 383 b 190 111 200 129 200 121 b 169 104 185 106 176 104 b 151 110 163 104 154 106 b 139 472 142 119 140 126 b 150 483 139 481 142 483 l 292 483 b 308 501 304 483 308 488 b 269 957 307 893 308 921 b 169 986 250 976 215 986 b 71 956 126 986 92 975 b 28 476 33 919 29 892 b 71 19 28 83 35 56 b 171 -12 90 -1 124 -12 z m 139 600 b 150 867 140 853 143 858 b 169 872 154 869 163 872 b 190 867 178 872 186 869 b 203 600 197 858 200 853 b 192 589 203 592 200 589 l 150 589 b 139 600 142 589 139 592 z m 217 1028 l 171 1169 b 157 1181 169 1178 165 1181 l 78 1181 b 71 1171 69 1181 68 1178 l 132 1028 b 147 1017 135 1019 139 1017 l 210 1017 b 217 1028 218 1017 219 1019 z "},"f":{"ha":265,"x_min":0,"x_max":0,"o":"m 85 0 l 164 0 b 182 17 176 0 182 4 l 179 843 b 190 854 179 851 182 854 l 240 854 b 257 871 253 854 257 858 l 257 957 b 240 974 257 969 253 974 l 190 974 b 179 985 182 974 179 976 l 179 1031 b 218 1061 179 1053 189 1061 b 254 1060 229 1061 243 1061 b 271 1072 267 1056 271 1060 l 271 1150 b 253 1169 271 1163 265 1168 b 197 1174 236 1172 217 1174 b 71 1047 110 1174 71 1122 l 71 985 b 60 974 71 976 68 974 l 22 974 b 6 957 10 974 6 969 l 6 871 b 22 854 6 858 10 854 l 60 854 b 71 843 68 854 71 851 l 68 17 b 85 0 68 4 72 0 z "},"g":{"ha":338,"x_min":0,"x_max":0,"o":"m 171 -240 b 307 -197 228 -240 276 -228 b 343 -68 332 -172 343 -133 b 303 58 343 -3 324 35 b 208 117 285 78 246 101 b 143 149 179 129 150 142 b 132 181 135 157 132 164 b 153 288 132 210 139 240 b 167 297 154 294 158 297 l 175 297 b 271 332 211 297 250 311 b 321 649 311 372 321 408 b 283 950 321 889 313 921 l 264 968 b 260 979 261 971 260 974 b 293 1024 260 1010 271 1024 l 299 1024 b 315 1040 311 1024 317 1028 l 315 1146 b 297 1163 315 1158 311 1164 b 221 1138 261 1161 239 1156 b 183 997 196 1111 192 1085 b 172 988 183 989 181 988 l 164 988 b 71 960 131 988 92 978 b 19 649 31 921 19 888 b 68 326 19 414 29 358 b 74 306 76 319 78 314 b 24 132 35 219 24 174 b 54 56 24 100 33 75 b 58 36 61 50 63 44 b 13 -121 28 -25 13 -79 b 42 -203 13 -151 21 -182 b 171 -240 69 -232 121 -240 z m 175 -139 b 128 -122 153 -139 138 -133 b 115 -76 118 -114 115 -99 b 133 4 115 -56 122 -26 b 151 11 138 13 142 15 l 174 1 b 217 -29 193 -8 208 -21 b 238 -76 231 -42 238 -58 b 225 -124 238 -97 235 -114 b 175 -139 215 -133 200 -139 z m 171 421 b 147 429 160 421 153 424 b 131 646 138 439 131 454 b 146 858 131 832 136 847 b 171 867 153 864 160 867 b 193 858 179 867 189 863 b 210 646 204 847 210 832 b 193 429 210 454 203 439 b 171 421 188 422 181 421 z "},"h":{"ha":358,"x_min":0,"x_max":0,"o":"m 49 0 l 128 0 b 146 17 142 0 146 4 b 146 611 146 165 144 407 b 165 847 146 822 146 828 b 188 857 172 853 178 857 b 203 850 194 857 199 854 b 211 551 211 838 211 833 l 210 17 b 226 0 210 4 214 0 l 308 0 b 326 17 322 0 326 4 l 326 511 b 293 967 326 906 331 932 b 233 988 281 979 260 989 b 161 950 210 986 189 976 b 136 960 143 932 136 935 l 139 1150 b 122 1167 139 1163 135 1167 l 50 1167 b 33 1150 38 1167 33 1163 l 32 507 l 32 17 b 49 0 32 4 36 0 z "},"i":{"ha":183,"x_min":0,"x_max":0,"o":"m 53 0 l 131 0 b 147 17 143 0 147 4 b 147 957 149 253 147 710 b 131 974 147 969 143 974 l 53 974 b 35 957 39 974 35 969 b 35 17 35 726 33 228 b 53 0 35 4 39 0 z m 53 1031 l 131 1031 b 147 1047 143 1031 147 1035 b 147 1150 149 1076 149 1118 b 131 1167 147 1163 143 1167 l 53 1167 b 35 1150 39 1167 35 1163 b 35 1047 33 1118 33 1075 b 53 1031 35 1035 39 1031 z "},"ı":{"ha":185,"x_min":0,"x_max":0,"o":"m 43 0 l 140 0 b 149 8 146 0 149 4 b 149 946 150 244 149 699 b 140 956 149 951 146 956 l 43 956 b 36 946 39 956 36 951 b 36 8 36 718 33 217 b 43 0 36 4 39 0 z "},"í":{"ha":185,"x_min":0,"x_max":0,"o":"m 43 0 l 140 0 b 149 8 146 0 149 4 b 149 946 150 244 149 699 b 140 956 149 951 146 956 l 43 956 b 36 946 39 956 36 951 b 36 8 36 718 33 217 b 43 0 36 4 39 0 z m 40 997 l 103 997 b 119 1008 111 997 115 1000 l 186 1151 b 179 1161 189 1158 188 1161 l 101 1161 b 86 1150 93 1161 90 1158 l 32 1008 b 40 997 29 1000 32 997 z "},"î":{"ha":185,"x_min":0,"x_max":0,"o":"m 43 0 l 140 0 b 149 8 146 0 149 4 b 149 946 150 244 149 699 b 140 956 149 951 146 956 l 43 956 b 36 946 39 956 36 951 b 36 8 36 718 33 217 b 43 0 36 4 39 0 z m 38 1150 l -14 1007 b -7 996 -17 999 -15 996 l 61 996 b 76 1007 69 996 74 999 l 94 1064 l 113 1007 b 128 996 115 999 119 996 l 194 996 b 203 1007 203 996 206 999 l 150 1150 b 135 1161 147 1158 143 1161 l 53 1161 b 38 1150 44 1161 40 1158 z "},"ï":{"ha":185,"x_min":0,"x_max":0,"o":"m 43 0 l 140 0 b 149 8 146 0 149 4 b 149 946 150 244 149 699 b 140 956 149 951 146 956 l 43 956 b 36 946 39 956 36 951 b 36 8 36 718 33 217 b 43 0 36 4 39 0 z m 124 1013 l 186 1013 b 203 1029 199 1013 203 1017 l 203 1119 b 186 1136 203 1132 199 1136 l 124 1136 b 107 1119 111 1136 107 1132 l 107 1029 b 124 1013 107 1017 111 1013 z m 3 1013 l 63 1013 b 79 1029 75 1013 79 1017 l 79 1119 b 63 1136 79 1132 75 1136 l 3 1136 b -14 1119 -10 1136 -14 1132 l -14 1029 b 3 1013 -14 1017 -10 1013 z "},"ì":{"ha":185,"x_min":0,"x_max":0,"o":"m 43 0 l 140 0 b 149 8 146 0 149 4 b 149 946 150 244 149 699 b 140 956 149 951 146 956 l 43 956 b 36 946 39 956 36 951 b 36 8 36 718 33 217 b 43 0 36 4 39 0 z m 140 1008 l 94 1150 b 81 1161 93 1158 89 1161 l 1 1161 b -6 1151 -7 1161 -8 1158 l 56 1008 b 71 997 58 1000 63 997 l 133 997 b 140 1008 142 997 143 1000 z "},"ĳ":{"ha":368,"x_min":0,"x_max":0,"o":"m 53 0 l 131 0 b 147 17 143 0 147 4 b 147 957 149 253 147 710 b 131 974 147 969 143 974 l 53 974 b 35 957 39 974 35 969 b 35 17 35 726 33 228 b 53 0 35 4 39 0 z m 53 1031 l 131 1031 b 147 1047 143 1031 147 1035 b 147 1150 149 1076 149 1118 b 131 1167 147 1163 143 1167 l 53 1167 b 35 1150 39 1167 35 1163 b 35 1047 33 1118 33 1075 b 53 1031 35 1035 39 1031 z m 238 -228 b 332 -90 313 -228 332 -179 b 328 957 332 164 331 707 b 311 974 328 969 324 974 l 233 974 b 215 957 221 974 215 969 l 215 -79 b 192 -107 215 -100 213 -107 b 161 -104 182 -107 172 -107 b 144 -118 149 -101 144 -106 l 144 -200 b 161 -222 144 -214 149 -219 b 238 -228 186 -226 213 -228 z m 233 1031 l 311 1031 b 328 1047 324 1031 328 1035 b 328 1150 329 1074 329 1121 b 311 1167 328 1163 324 1167 l 235 1167 b 215 1150 222 1167 217 1163 b 215 1047 214 1122 214 1075 b 233 1031 215 1035 221 1031 z "},"j":{"ha":188,"x_min":0,"x_max":0,"o":"m 58 -228 b 153 -90 133 -228 153 -179 b 149 957 153 164 151 707 b 132 974 149 969 144 974 l 54 974 b 36 957 42 974 36 969 l 36 -79 b 13 -107 36 -100 33 -107 b -18 -104 3 -107 -7 -107 b -35 -118 -31 -101 -35 -106 l -35 -200 b -18 -222 -35 -214 -31 -219 b 58 -228 7 -226 33 -228 z m 54 1031 l 132 1031 b 149 1047 144 1031 149 1035 b 149 1150 150 1074 150 1121 b 132 1167 149 1163 144 1167 l 56 1167 b 36 1150 43 1167 38 1163 b 36 1047 35 1122 35 1075 b 54 1031 36 1035 42 1031 z "},"ȷ":{"ha":189,"x_min":0,"x_max":0,"o":"m 60 -221 b 154 -86 136 -221 154 -174 b 150 938 154 169 153 688 b 132 956 150 951 146 956 l 56 956 b 38 938 42 956 38 951 l 38 -75 b 14 -104 38 -97 33 -104 b -17 -101 4 -104 -6 -103 b -33 -114 -29 -99 -33 -101 l -32 -194 b -15 -215 -32 -207 -28 -212 b 60 -221 8 -219 35 -221 z "},"k":{"ha":333,"x_min":0,"x_max":0,"o":"m 49 0 l 126 0 b 144 17 140 0 144 4 l 143 485 b 157 483 146 494 156 494 b 217 11 176 333 200 169 b 229 0 218 3 221 0 l 317 0 b 328 11 325 0 328 3 b 250 579 304 199 274 433 b 250 601 249 588 249 593 b 326 963 272 706 303 843 b 318 974 329 971 326 974 l 229 974 b 215 963 221 974 218 971 b 153 644 197 867 176 753 b 140 649 150 640 140 642 b 144 1150 140 792 142 981 b 128 1167 144 1163 140 1167 l 49 1167 b 32 1150 36 1167 32 1163 l 32 17 b 49 0 32 4 36 0 z "},"l":{"ha":181,"x_min":0,"x_max":0,"o":"m 50 0 l 129 0 b 146 17 142 0 146 4 b 146 1150 147 321 146 847 b 129 1167 146 1163 142 1167 l 50 1167 b 33 1150 38 1167 33 1163 b 33 17 33 813 31 353 b 50 0 33 4 38 0 z "},"m":{"ha":526,"x_min":0,"x_max":0,"o":"m 51 0 l 129 0 b 146 17 142 0 146 4 l 146 610 b 167 849 146 828 147 829 b 185 856 172 854 178 856 b 200 851 192 856 197 854 b 208 610 208 843 207 833 b 207 17 210 367 207 182 b 225 0 207 4 211 0 l 304 0 b 321 17 317 0 321 4 l 321 610 b 340 849 321 828 324 832 b 360 856 346 854 354 856 b 375 851 364 856 369 856 b 383 610 382 844 383 838 l 383 17 b 400 0 383 4 388 0 l 478 0 b 496 17 490 0 496 4 l 496 583 b 467 967 496 919 496 935 b 404 988 453 982 433 988 b 325 947 376 988 351 972 b 301 951 314 936 308 938 b 235 988 289 975 269 988 b 161 951 210 988 189 978 b 133 963 143 936 135 939 l 133 957 b 114 974 132 969 128 974 l 51 974 b 33 957 39 974 35 969 l 33 574 l 33 17 b 51 0 33 4 39 0 z "},"n":{"ha":353,"x_min":0,"x_max":0,"o":"m 49 0 l 128 0 b 144 17 140 0 144 4 l 144 615 b 165 849 144 824 146 829 b 186 858 171 854 178 858 b 203 851 193 858 199 856 b 210 556 210 839 210 836 l 210 17 b 228 0 210 4 214 0 l 306 0 b 322 17 318 0 322 4 l 322 556 b 292 969 322 921 325 936 b 236 988 281 981 261 988 b 160 944 213 988 189 975 b 135 953 143 926 136 929 l 133 957 b 115 974 133 969 128 974 l 50 974 b 32 957 36 974 32 969 l 32 556 l 32 17 b 49 0 32 4 36 0 z "},"ñ":{"ha":353,"x_min":0,"x_max":0,"o":"m 49 0 l 128 0 b 144 17 140 0 144 4 l 144 615 b 165 849 144 824 146 829 b 186 858 171 854 178 858 b 203 851 193 858 199 856 b 210 556 210 839 210 836 l 210 17 b 228 0 210 4 214 0 l 306 0 b 322 17 318 0 322 4 l 322 556 b 292 969 322 921 325 936 b 236 988 281 981 261 988 b 160 944 213 988 189 975 b 135 953 143 926 136 929 l 133 957 b 115 974 133 969 128 974 l 50 974 b 32 957 36 974 32 969 l 32 556 l 32 17 b 49 0 32 4 36 0 z m 221 1018 b 275 1039 243 1018 263 1028 b 282 1060 281 1046 282 1051 l 282 1124 b 274 1126 282 1132 281 1133 b 224 1101 253 1106 244 1101 b 185 1113 213 1101 199 1107 b 133 1128 171 1119 153 1128 b 78 1104 111 1128 90 1118 b 71 1085 72 1099 71 1093 l 71 1018 b 78 1015 71 1010 72 1010 b 128 1043 101 1040 110 1043 b 171 1032 142 1043 156 1038 b 221 1018 185 1025 201 1018 z "},"o":{"ha":346,"x_min":0,"x_max":0,"o":"m 172 -11 b 278 21 224 -11 258 0 b 318 504 315 57 318 78 b 279 956 318 900 315 919 b 172 988 257 978 219 989 b 68 954 125 986 88 974 b 26 504 31 918 26 900 b 65 21 26 79 29 57 b 172 -11 86 0 124 -11 z m 172 107 b 150 115 164 107 156 110 b 140 504 140 125 140 140 b 151 861 140 833 140 850 b 172 869 157 867 165 869 b 192 861 181 869 188 867 b 206 504 204 850 206 833 b 194 115 206 140 206 125 b 172 107 189 110 182 107 z "},"ó":{"ha":346,"x_min":0,"x_max":0,"o":"m 172 -11 b 278 21 224 -11 258 0 b 318 504 315 57 318 78 b 279 956 318 900 315 919 b 172 988 257 978 219 989 b 68 954 125 986 88 974 b 26 504 31 918 26 900 b 65 21 26 79 29 57 b 172 -11 86 0 124 -11 z m 172 107 b 150 115 164 107 156 110 b 140 504 140 125 140 140 b 151 861 140 833 140 850 b 172 869 157 867 165 869 b 192 861 181 869 188 867 b 206 504 204 850 206 833 b 194 115 206 140 206 125 b 172 107 189 110 182 107 z m 119 1015 l 182 1015 b 199 1026 190 1015 194 1018 l 265 1169 b 258 1179 268 1176 267 1179 l 181 1179 b 165 1168 172 1179 169 1176 l 111 1026 b 119 1015 108 1018 111 1015 z "},"ô":{"ha":346,"x_min":0,"x_max":0,"o":"m 172 -11 b 278 21 224 -11 258 0 b 318 504 315 57 318 78 b 279 956 318 900 315 919 b 172 988 257 978 219 989 b 68 954 125 986 88 974 b 26 504 31 918 26 900 b 65 21 26 79 29 57 b 172 -11 86 0 124 -11 z m 172 107 b 150 115 164 107 156 110 b 140 504 140 125 140 140 b 151 861 140 833 140 850 b 172 869 157 867 165 869 b 192 861 181 869 188 867 b 206 504 204 850 206 833 b 194 115 206 140 206 125 b 172 107 189 110 182 107 z m 117 1168 l 65 1025 b 72 1014 63 1017 64 1014 l 140 1014 b 156 1025 149 1014 153 1017 l 174 1082 l 192 1025 b 207 1014 194 1017 199 1014 l 274 1014 b 282 1025 282 1014 285 1017 l 229 1168 b 214 1179 226 1176 222 1179 l 132 1179 b 117 1168 124 1179 119 1176 z "},"ö":{"ha":346,"x_min":0,"x_max":0,"o":"m 172 -11 b 278 21 224 -11 258 0 b 318 504 315 57 318 78 b 279 956 318 900 315 919 b 172 988 257 978 219 989 b 68 954 125 986 88 974 b 26 504 31 918 26 900 b 65 21 26 79 29 57 b 172 -11 86 0 124 -11 z m 172 107 b 150 115 164 107 156 110 b 140 504 140 125 140 140 b 151 861 140 833 140 850 b 172 869 157 867 165 869 b 192 861 181 869 188 867 b 206 504 204 850 206 833 b 194 115 206 140 206 125 b 172 107 189 110 182 107 z m 204 1031 l 267 1031 b 283 1047 279 1031 283 1035 l 283 1138 b 267 1154 283 1150 279 1154 l 204 1154 b 188 1138 192 1154 188 1150 l 188 1047 b 204 1031 188 1035 192 1031 z m 83 1031 l 143 1031 b 160 1047 156 1031 160 1035 l 160 1138 b 143 1154 160 1150 156 1154 l 83 1154 b 67 1138 71 1154 67 1150 l 67 1047 b 83 1031 67 1035 71 1031 z "},"ò":{"ha":346,"x_min":0,"x_max":0,"o":"m 172 -11 b 278 21 224 -11 258 0 b 318 504 315 57 318 78 b 279 956 318 900 315 919 b 172 988 257 978 219 989 b 68 954 125 986 88 974 b 26 504 31 918 26 900 b 65 21 26 79 29 57 b 172 -11 86 0 124 -11 z m 172 107 b 150 115 164 107 156 110 b 140 504 140 125 140 140 b 151 861 140 833 140 850 b 172 869 157 867 165 869 b 192 861 181 869 188 867 b 206 504 204 850 206 833 b 194 115 206 140 206 125 b 172 107 189 110 182 107 z m 221 1026 l 175 1168 b 161 1179 174 1176 169 1179 l 82 1179 b 75 1169 74 1179 72 1176 l 136 1026 b 151 1015 139 1018 143 1015 l 214 1015 b 221 1026 222 1015 224 1018 z "},"ø":{"ha":346,"x_min":0,"x_max":0,"o":"m 172 -11 b 278 21 224 -11 258 0 b 318 504 315 57 318 78 b 279 956 318 900 315 919 b 239 979 268 967 256 974 l 247 1094 b 236 1106 247 1103 244 1106 l 203 1106 b 190 1094 194 1106 192 1103 l 182 988 l 172 988 b 68 954 125 986 88 974 b 26 504 31 918 26 900 b 65 21 26 79 29 57 b 106 -3 75 11 89 3 l 96 -131 b 106 -142 94 -139 97 -142 l 140 -142 b 153 -131 149 -142 151 -139 l 163 -11 z m 172 107 l 206 554 l 206 504 b 194 115 206 140 206 125 b 172 107 189 110 182 107 z m 140 446 l 140 504 b 151 861 140 833 140 850 b 172 869 157 867 165 869 z "},"õ":{"ha":346,"x_min":0,"x_max":0,"o":"m 172 -11 b 278 21 224 -11 258 0 b 318 504 315 57 318 78 b 279 956 318 900 315 919 b 172 988 257 978 219 989 b 68 954 125 986 88 974 b 26 504 31 918 26 900 b 65 21 26 79 29 57 b 172 -11 86 0 124 -11 z m 172 107 b 150 115 164 107 156 110 b 140 504 140 125 140 140 b 151 861 140 833 140 850 b 172 869 157 867 165 869 b 192 861 181 869 188 867 b 206 504 204 850 206 833 b 194 115 206 140 206 125 b 172 107 189 110 182 107 z m 217 1017 b 271 1038 239 1017 258 1026 b 278 1058 276 1044 278 1050 l 278 1122 b 269 1125 278 1131 276 1132 b 219 1100 249 1104 240 1100 b 181 1111 208 1100 194 1106 b 129 1126 167 1118 149 1126 b 74 1103 107 1126 86 1117 b 67 1083 68 1097 67 1092 l 67 1017 b 74 1014 67 1008 68 1008 b 124 1042 97 1039 106 1042 b 167 1031 138 1042 151 1036 b 217 1017 181 1024 197 1017 z "},"œ":{"ha":510,"x_min":0,"x_max":0,"o":"m 172 -11 b 263 8 213 -11 242 -4 b 350 -12 283 -6 313 -12 b 450 18 394 -12 429 -4 b 488 371 478 44 485 74 b 471 388 489 383 483 388 l 400 388 b 382 371 386 388 382 383 b 369 111 379 129 379 121 b 349 104 364 106 356 104 b 331 110 342 104 333 106 b 318 472 321 119 319 126 b 329 483 318 481 321 483 l 471 483 b 488 501 483 483 488 488 b 449 957 486 893 488 921 b 349 986 429 976 394 986 b 265 967 315 986 286 979 b 172 988 243 982 211 989 b 68 954 125 986 88 974 b 26 504 31 918 26 900 b 65 21 26 79 29 57 b 172 -11 86 0 124 -11 z m 172 107 b 150 115 164 107 156 110 b 140 504 140 125 140 140 b 151 861 140 833 140 850 b 172 869 157 867 165 869 b 192 861 181 869 188 867 b 206 504 204 850 206 833 b 194 115 206 140 206 125 b 172 107 189 110 182 107 z m 318 600 b 329 867 319 853 322 858 b 349 872 333 869 342 872 b 369 867 357 872 365 869 b 382 600 376 858 379 853 b 371 589 382 592 379 589 l 329 589 b 318 600 321 589 318 592 z "},"p":{"ha":353,"x_min":0,"x_max":0,"o":"m 50 -203 l 131 -203 b 147 -186 143 -203 147 -199 l 144 6 b 171 17 144 29 153 32 b 233 -10 194 -3 215 -10 b 292 14 257 -10 276 -3 b 325 468 325 46 325 65 b 286 968 325 907 325 928 b 233 988 274 981 256 988 b 153 938 206 988 185 972 b 128 947 136 921 129 924 l 126 957 b 108 974 126 969 121 974 l 50 974 b 33 957 38 974 33 969 l 32 547 b 33 -186 31 310 33 13 b 50 -203 33 -199 38 -203 z m 186 113 b 161 125 176 113 167 119 b 144 469 143 149 144 150 b 157 847 144 811 144 831 b 183 861 164 854 172 861 b 203 854 193 861 197 860 b 213 471 213 844 213 835 b 201 119 213 135 210 128 b 186 113 197 114 192 113 z "},"þ":{"ha":357,"x_min":0,"x_max":0,"o":"m 54 -203 l 133 -203 b 151 -186 147 -203 151 -199 l 149 17 b 157 29 149 25 151 29 b 189 8 164 29 174 18 b 236 -10 206 -6 222 -10 b 296 14 260 -10 281 -3 b 329 460 329 46 329 65 b 289 949 329 888 329 910 b 238 969 276 963 258 969 b 181 947 208 969 192 958 b 150 918 167 935 158 918 b 142 926 144 918 142 921 l 146 1160 b 128 1178 146 1172 142 1178 l 54 1178 b 38 1160 42 1178 38 1172 l 35 538 l 38 -186 b 54 -203 38 -199 42 -203 z m 189 114 b 165 128 181 114 171 121 b 147 461 147 151 147 153 b 160 828 147 793 146 811 b 188 842 165 836 176 842 b 207 835 196 842 201 840 b 215 463 217 826 215 815 b 206 121 215 136 214 129 b 189 114 200 115 194 114 z "},"q":{"ha":353,"x_min":0,"x_max":0,"o":"m 222 -203 l 303 -203 b 319 -186 315 -203 319 -199 b 321 547 319 13 322 310 l 319 957 b 303 974 319 969 315 974 l 244 974 b 226 957 232 974 226 969 l 225 947 b 200 938 224 924 217 921 b 119 988 168 972 147 988 b 67 968 97 988 79 981 b 28 468 28 928 28 907 b 61 14 28 65 28 46 b 119 -10 76 -3 96 -10 b 182 17 138 -10 158 -3 b 208 6 200 32 208 29 l 206 -186 b 222 -203 206 -199 210 -203 z m 167 113 b 151 119 161 113 156 114 b 140 471 143 128 140 135 b 150 854 140 835 140 844 b 169 861 156 860 160 861 b 196 847 181 861 189 854 b 208 469 208 831 208 811 b 192 125 208 150 210 149 b 167 113 186 119 176 113 z "},"r":{"ha":321,"x_min":0,"x_max":0,"o":"m 50 0 l 128 0 b 144 17 140 0 144 4 l 143 700 b 160 851 143 821 144 836 b 176 858 165 856 171 858 b 193 853 182 858 188 857 b 201 592 200 844 200 835 b 219 574 201 579 206 574 l 290 574 b 308 592 304 574 308 579 b 276 967 304 914 303 940 b 224 986 263 981 247 986 b 149 943 196 986 172 968 b 122 951 132 926 125 928 l 122 957 b 103 974 121 969 115 974 l 50 974 b 32 957 36 974 32 969 l 32 511 l 32 17 b 50 0 32 4 36 0 z "},"s":{"ha":328,"x_min":0,"x_max":0,"o":"m 165 -10 b 265 19 213 -10 247 0 b 300 272 293 49 300 82 b 249 521 300 438 297 474 b 200 558 238 532 224 542 b 154 594 181 572 165 582 b 135 726 139 613 135 621 b 144 864 135 842 135 856 b 164 871 149 868 157 871 b 185 863 172 871 179 868 b 199 671 192 856 194 842 b 217 651 200 657 204 653 b 289 651 239 650 265 650 b 306 671 301 653 306 657 b 264 958 300 897 294 928 b 163 988 244 978 210 988 b 58 954 113 988 76 974 b 24 736 33 928 24 881 b 74 494 24 563 29 540 b 125 451 90 478 106 467 b 168 419 144 438 157 429 b 192 269 189 399 192 383 b 182 114 192 132 192 122 b 161 107 176 107 169 107 b 140 115 154 107 147 108 b 126 360 133 122 131 138 b 108 378 126 372 122 378 l 38 378 b 21 360 24 378 19 372 b 61 19 25 99 28 54 b 165 -10 82 0 118 -10 z "},"t":{"ha":335,"x_min":0,"x_max":0,"o":"m 183 -14 b 279 15 228 -14 261 -3 b 319 378 311 46 313 58 b 303 396 319 390 315 394 l 240 396 b 222 378 226 394 222 390 b 207 113 215 128 215 121 b 185 106 201 107 193 106 b 165 128 171 106 165 113 b 172 843 165 307 169 683 b 183 854 172 851 175 854 l 299 854 b 315 871 311 854 315 858 l 315 957 b 299 974 315 969 311 974 l 182 974 b 171 985 174 974 171 976 l 171 1092 b 153 1110 171 1106 167 1110 l 94 1110 b 75 1093 82 1110 76 1106 l 67 985 b 54 974 65 976 63 974 l 25 974 b 8 957 13 974 8 969 l 8 871 b 25 854 8 858 13 854 l 54 854 b 65 843 63 854 65 851 b 54 118 63 653 54 256 b 183 -14 54 29 83 -14 z "},"u":{"ha":353,"x_min":0,"x_max":0,"o":"m 304 974 l 225 974 b 208 957 213 974 208 969 l 208 358 b 188 125 208 150 207 144 b 167 115 182 119 175 115 b 150 122 160 115 154 118 b 143 418 143 135 143 138 l 143 957 b 125 974 143 969 139 974 l 47 974 b 31 957 35 974 31 969 l 31 418 b 61 4 31 53 28 38 b 117 -14 72 -7 92 -14 b 193 29 140 -14 164 -1 b 218 21 210 47 217 44 l 219 17 b 238 0 219 4 225 0 l 303 0 b 321 17 317 0 321 4 l 321 418 l 321 957 b 304 974 321 969 317 974 z "},"ú":{"ha":353,"x_min":0,"x_max":0,"o":"m 304 974 l 225 974 b 208 957 213 974 208 969 l 208 358 b 188 125 208 150 207 144 b 167 115 182 119 175 115 b 150 122 160 115 154 118 b 143 418 143 135 143 138 l 143 957 b 125 974 143 969 139 974 l 47 974 b 31 957 35 974 31 969 l 31 418 b 61 4 31 53 28 38 b 117 -14 72 -7 92 -14 b 193 29 140 -14 164 -1 b 218 21 210 47 217 44 l 219 17 b 238 0 219 4 225 0 l 303 0 b 321 17 317 0 321 4 l 321 418 l 321 957 b 304 974 321 969 317 974 z m 129 997 l 192 997 b 208 1008 200 997 204 1000 l 275 1151 b 268 1161 278 1158 276 1161 l 190 1161 b 175 1150 182 1161 179 1158 l 121 1008 b 129 997 118 1000 121 997 z "},"û":{"ha":353,"x_min":0,"x_max":0,"o":"m 304 974 l 225 974 b 208 957 213 974 208 969 l 208 358 b 188 125 208 150 207 144 b 167 115 182 119 175 115 b 150 122 160 115 154 118 b 143 418 143 135 143 138 l 143 957 b 125 974 143 969 139 974 l 47 974 b 31 957 35 974 31 969 l 31 418 b 61 4 31 53 28 38 b 117 -14 72 -7 92 -14 b 193 29 140 -14 164 -1 b 218 21 210 47 217 44 l 219 17 b 238 0 219 4 225 0 l 303 0 b 321 17 317 0 321 4 l 321 418 l 321 957 b 304 974 321 969 317 974 z m 126 1150 l 75 1007 b 82 996 72 999 74 996 l 150 996 b 165 1007 158 996 163 999 l 183 1064 l 201 1007 b 217 996 204 999 208 996 l 283 996 b 292 1007 292 996 294 999 l 239 1150 b 224 1161 236 1158 232 1161 l 142 1161 b 126 1150 133 1161 129 1158 z "},"ü":{"ha":353,"x_min":0,"x_max":0,"o":"m 304 974 l 225 974 b 208 957 213 974 208 969 l 208 358 b 188 125 208 150 207 144 b 167 115 182 119 175 115 b 150 122 160 115 154 118 b 143 418 143 135 143 138 l 143 957 b 125 974 143 969 139 974 l 47 974 b 31 957 35 974 31 969 l 31 418 b 61 4 31 53 28 38 b 117 -14 72 -7 92 -14 b 193 29 140 -14 164 -1 b 218 21 210 47 217 44 l 219 17 b 238 0 219 4 225 0 l 303 0 b 321 17 317 0 321 4 l 321 418 l 321 957 b 304 974 321 969 317 974 z m 214 1013 l 276 1013 b 293 1029 289 1013 293 1017 l 293 1119 b 276 1136 293 1132 289 1136 l 214 1136 b 197 1119 201 1136 197 1132 l 197 1029 b 214 1013 197 1017 201 1013 z m 93 1013 l 153 1013 b 169 1029 165 1013 169 1017 l 169 1119 b 153 1136 169 1132 165 1136 l 93 1136 b 76 1119 81 1136 76 1132 l 76 1029 b 93 1013 76 1017 81 1013 z "},"ù":{"ha":353,"x_min":0,"x_max":0,"o":"m 304 974 l 225 974 b 208 957 213 974 208 969 l 208 358 b 188 125 208 150 207 144 b 167 115 182 119 175 115 b 150 122 160 115 154 118 b 143 418 143 135 143 138 l 143 957 b 125 974 143 969 139 974 l 47 974 b 31 957 35 974 31 969 l 31 418 b 61 4 31 53 28 38 b 117 -14 72 -7 92 -14 b 193 29 140 -14 164 -1 b 218 21 210 47 217 44 l 219 17 b 238 0 219 4 225 0 l 303 0 b 321 17 317 0 321 4 l 321 418 l 321 957 b 304 974 321 969 317 974 z m 231 1008 l 185 1150 b 171 1161 183 1158 179 1161 l 92 1161 b 85 1151 83 1161 82 1158 l 146 1008 b 161 997 149 1000 153 997 l 224 997 b 231 1008 232 997 233 1000 z "},"v":{"ha":306,"x_min":0,"x_max":0,"o":"m 99 -1 b 219 0 133 -3 182 -3 b 231 11 228 0 231 3 b 289 963 258 322 281 753 b 278 975 289 971 286 974 l 203 975 b 190 963 194 974 192 971 b 167 281 186 775 181 503 b 153 283 164 271 153 272 b 126 963 139 504 131 775 b 115 975 126 971 124 974 l 31 975 b 19 963 22 974 19 971 b 86 11 26 731 51 310 b 99 -1 88 3 90 0 z "},"w":{"ha":475,"x_min":0,"x_max":0,"o":"m 65 0 b 175 -1 101 -3 143 -3 b 188 11 183 0 186 3 b 232 704 204 188 217 457 b 244 701 236 714 243 713 b 281 11 254 453 267 183 b 293 -1 282 3 285 0 b 400 -1 326 -3 368 -3 b 413 11 408 0 411 3 b 461 963 438 276 458 672 b 450 975 461 971 458 974 l 367 975 b 356 963 358 974 356 971 b 336 276 353 817 346 540 b 326 279 333 267 328 268 l 294 963 b 282 975 293 971 290 974 l 203 975 b 190 963 194 974 190 971 b 154 278 183 810 171 542 b 144 282 151 269 144 271 b 126 963 135 563 128 836 b 115 975 126 971 124 974 l 26 975 b 15 963 18 974 15 971 b 54 11 17 715 35 321 b 65 0 54 3 57 0 z "},"ẃ":{"ha":475,"x_min":0,"x_max":0,"o":"m 65 0 b 175 -1 101 -3 143 -3 b 188 11 183 0 186 3 b 232 704 204 188 217 457 b 244 701 236 714 243 713 b 281 11 254 453 267 183 b 293 -1 282 3 285 0 b 400 -1 326 -3 368 -3 b 413 11 408 0 411 3 b 461 963 438 276 458 672 b 450 975 461 971 458 974 l 367 975 b 356 963 358 974 356 971 b 336 276 353 817 346 540 b 326 279 333 267 328 268 l 294 963 b 282 975 293 971 290 974 l 203 975 b 190 963 194 974 190 971 b 154 278 183 810 171 542 b 144 282 151 269 144 271 b 126 963 135 563 128 836 b 115 975 126 971 124 974 l 26 975 b 15 963 18 974 15 971 b 54 11 17 715 35 321 b 65 0 54 3 57 0 z m 183 1017 l 246 1017 b 263 1028 254 1017 258 1019 l 329 1171 b 322 1181 332 1178 331 1181 l 244 1181 b 229 1169 236 1181 233 1178 l 175 1028 b 183 1017 172 1019 175 1017 z "},"ŵ":{"ha":475,"x_min":0,"x_max":0,"o":"m 65 0 b 175 -1 101 -3 143 -3 b 188 11 183 0 186 3 b 232 704 204 188 217 457 b 244 701 236 714 243 713 b 281 11 254 453 267 183 b 293 -1 282 3 285 0 b 400 -1 326 -3 368 -3 b 413 11 408 0 411 3 b 461 963 438 276 458 672 b 450 975 461 971 458 974 l 367 975 b 356 963 358 974 356 971 b 336 276 353 817 346 540 b 326 279 333 267 328 268 l 294 963 b 282 975 293 971 290 974 l 203 975 b 190 963 194 974 190 971 b 154 278 183 810 171 542 b 144 282 151 269 144 271 b 126 963 135 563 128 836 b 115 975 126 971 124 974 l 26 975 b 15 963 18 974 15 971 b 54 11 17 715 35 321 b 65 0 54 3 57 0 z m 179 1169 l 128 1026 b 135 1015 125 1018 126 1015 l 203 1015 b 218 1026 211 1015 215 1018 l 236 1083 l 254 1026 b 269 1015 257 1018 261 1015 l 336 1015 b 344 1026 344 1015 347 1018 l 292 1169 b 276 1181 289 1178 285 1181 l 194 1181 b 179 1169 186 1181 182 1178 z "},"ẅ":{"ha":475,"x_min":0,"x_max":0,"o":"m 65 0 b 175 -1 101 -3 143 -3 b 188 11 183 0 186 3 b 232 704 204 188 217 457 b 244 701 236 714 243 713 b 281 11 254 453 267 183 b 293 -1 282 3 285 0 b 400 -1 326 -3 368 -3 b 413 11 408 0 411 3 b 461 963 438 276 458 672 b 450 975 461 971 458 974 l 367 975 b 356 963 358 974 356 971 b 336 276 353 817 346 540 b 326 279 333 267 328 268 l 294 963 b 282 975 293 971 290 974 l 203 975 b 190 963 194 974 190 971 b 154 278 183 810 171 542 b 144 282 151 269 144 271 b 126 963 135 563 128 836 b 115 975 126 971 124 974 l 26 975 b 15 963 18 974 15 971 b 54 11 17 715 35 321 b 65 0 54 3 57 0 z m 267 1032 l 329 1032 b 346 1049 342 1032 346 1036 l 346 1139 b 329 1156 346 1151 342 1156 l 267 1156 b 250 1139 254 1156 250 1151 l 250 1049 b 267 1032 250 1036 254 1032 z m 146 1032 l 206 1032 b 222 1049 218 1032 222 1036 l 222 1139 b 206 1156 222 1151 218 1156 l 146 1156 b 129 1139 133 1156 129 1151 l 129 1049 b 146 1032 129 1036 133 1032 z "},"ẁ":{"ha":475,"x_min":0,"x_max":0,"o":"m 65 0 b 175 -1 101 -3 143 -3 b 188 11 183 0 186 3 b 232 704 204 188 217 457 b 244 701 236 714 243 713 b 281 11 254 453 267 183 b 293 -1 282 3 285 0 b 400 -1 326 -3 368 -3 b 413 11 408 0 411 3 b 461 963 438 276 458 672 b 450 975 461 971 458 974 l 367 975 b 356 963 358 974 356 971 b 336 276 353 817 346 540 b 326 279 333 267 328 268 l 294 963 b 282 975 293 971 290 974 l 203 975 b 190 963 194 974 190 971 b 154 278 183 810 171 542 b 144 282 151 269 144 271 b 126 963 135 563 128 836 b 115 975 126 971 124 974 l 26 975 b 15 963 18 974 15 971 b 54 11 17 715 35 321 b 65 0 54 3 57 0 z m 283 1028 l 238 1169 b 224 1181 236 1178 232 1181 l 144 1181 b 138 1171 136 1181 135 1178 l 199 1028 b 214 1017 201 1019 206 1017 l 276 1017 b 283 1028 285 1017 286 1019 z "},"x":{"ha":322,"x_min":0,"x_max":0,"o":"m 15 0 l 94 0 b 107 11 103 0 106 3 l 149 389 b 161 386 151 394 161 394 b 196 11 169 279 183 142 b 208 0 197 3 200 0 b 299 0 236 -1 272 -1 b 310 11 307 0 310 3 b 249 540 293 194 265 410 b 250 563 249 549 249 554 b 318 963 271 661 304 843 b 308 974 319 971 317 974 l 229 974 b 217 963 221 974 218 971 b 178 629 207 865 190 733 b 164 631 175 624 164 624 l 129 963 b 117 975 128 971 125 974 l 24 975 b 14 963 15 974 13 971 b 76 515 32 789 60 621 b 75 494 76 507 76 501 b 4 11 54 369 19 139 b 15 0 4 3 7 0 z "},"y":{"ha":306,"x_min":0,"x_max":0,"o":"m 115 -231 b 225 -100 190 -231 219 -194 l 235 47 b 289 963 260 354 281 761 b 278 975 289 971 286 974 l 203 975 b 190 963 194 974 192 971 b 167 282 186 775 181 503 b 153 285 164 272 153 274 b 126 963 139 504 131 775 b 115 975 126 971 124 974 l 31 975 b 19 963 22 974 19 971 b 86 13 26 731 51 311 b 99 0 88 4 90 1 l 125 -1 l 121 -89 b 97 -112 119 -104 114 -112 l 51 -112 b 35 -126 39 -110 35 -114 l 35 -201 b 51 -224 35 -215 39 -221 b 115 -231 68 -228 90 -231 z "},"ý":{"ha":306,"x_min":0,"x_max":0,"o":"m 115 -231 b 225 -100 190 -231 219 -194 l 235 47 b 289 963 260 354 281 761 b 278 975 289 971 286 974 l 203 975 b 190 963 194 974 192 971 b 167 282 186 775 181 503 b 153 285 164 272 153 274 b 126 963 139 504 131 775 b 115 975 126 971 124 974 l 31 975 b 19 963 22 974 19 971 b 86 13 26 731 51 311 b 99 0 88 4 90 1 l 125 -1 l 121 -89 b 97 -112 119 -104 114 -112 l 51 -112 b 35 -126 39 -110 35 -114 l 35 -201 b 51 -224 35 -215 39 -221 b 115 -231 68 -228 90 -231 z m 99 1017 l 161 1017 b 178 1028 169 1017 174 1019 l 244 1171 b 238 1181 247 1178 246 1181 l 160 1181 b 144 1169 151 1181 149 1178 l 90 1028 b 99 1017 88 1019 90 1017 z "},"ŷ":{"ha":306,"x_min":0,"x_max":0,"o":"m 115 -231 b 225 -100 190 -231 219 -194 l 235 47 b 289 963 260 354 281 761 b 278 975 289 971 286 974 l 203 975 b 190 963 194 974 192 971 b 167 282 186 775 181 503 b 153 285 164 272 153 274 b 126 963 139 504 131 775 b 115 975 126 971 124 974 l 31 975 b 19 963 22 974 19 971 b 86 13 26 731 51 311 b 99 0 88 4 90 1 l 125 -1 l 121 -89 b 97 -112 119 -104 114 -112 l 51 -112 b 35 -126 39 -110 35 -114 l 35 -201 b 51 -224 35 -215 39 -221 b 115 -231 68 -228 90 -231 z m 94 1169 l 43 1026 b 50 1015 40 1018 42 1015 l 118 1015 b 133 1026 126 1015 131 1018 l 151 1083 l 169 1026 b 185 1015 172 1018 176 1015 l 251 1015 b 260 1026 260 1015 263 1018 l 207 1169 b 192 1181 204 1178 200 1181 l 110 1181 b 94 1169 101 1181 97 1178 z "},"ÿ":{"ha":306,"x_min":0,"x_max":0,"o":"m 115 -231 b 225 -100 190 -231 219 -194 l 235 47 b 289 963 260 354 281 761 b 278 975 289 971 286 974 l 203 975 b 190 963 194 974 192 971 b 167 282 186 775 181 503 b 153 285 164 272 153 274 b 126 963 139 504 131 775 b 115 975 126 971 124 974 l 31 975 b 19 963 22 974 19 971 b 86 13 26 731 51 311 b 99 0 88 4 90 1 l 125 -1 l 121 -89 b 97 -112 119 -104 114 -112 l 51 -112 b 35 -126 39 -110 35 -114 l 35 -201 b 51 -224 35 -215 39 -221 b 115 -231 68 -228 90 -231 z m 182 1032 l 244 1032 b 261 1049 257 1032 261 1036 l 261 1139 b 244 1156 261 1151 257 1156 l 182 1156 b 165 1139 169 1156 165 1151 l 165 1049 b 182 1032 165 1036 169 1032 z m 61 1032 l 121 1032 b 138 1049 133 1032 138 1036 l 138 1139 b 121 1156 138 1151 133 1156 l 61 1156 b 44 1139 49 1156 44 1151 l 44 1049 b 61 1032 44 1036 49 1032 z "},"ỳ":{"ha":306,"x_min":0,"x_max":0,"o":"m 115 -231 b 225 -100 190 -231 219 -194 l 235 47 b 289 963 260 354 281 761 b 278 975 289 971 286 974 l 203 975 b 190 963 194 974 192 971 b 167 282 186 775 181 503 b 153 285 164 272 153 274 b 126 963 139 504 131 775 b 115 975 126 971 124 974 l 31 975 b 19 963 22 974 19 971 b 86 13 26 731 51 311 b 99 0 88 4 90 1 l 125 -1 l 121 -89 b 97 -112 119 -104 114 -112 l 51 -112 b 35 -126 39 -110 35 -114 l 35 -201 b 51 -224 35 -215 39 -221 b 115 -231 68 -228 90 -231 z m 199 1028 l 153 1169 b 139 1181 151 1178 147 1181 l 60 1181 b 53 1171 51 1181 50 1178 l 114 1028 b 129 1017 117 1019 121 1017 l 192 1017 b 199 1028 200 1017 201 1019 z "},"z":{"ha":260,"x_min":0,"x_max":0,"o":"m 38 0 b 222 0 99 -1 161 0 b 240 17 236 0 240 4 l 240 104 b 222 121 240 117 236 121 l 146 118 b 136 129 138 118 135 121 b 236 844 157 290 208 650 b 239 879 238 857 239 867 l 239 957 b 221 974 239 969 233 974 l 38 974 b 21 957 25 974 21 969 l 21 869 b 38 853 21 857 25 853 l 119 854 b 129 843 128 854 131 851 b 22 121 101 663 49 313 b 19 86 21 108 19 99 l 19 17 b 38 0 19 4 24 0 z "}," ":{"ha":69,"x_min":0,"x_max":0,"o":""},".":{"ha":147,"x_min":0,"x_max":0,"o":"m 13 193 l 13 17 b 31 0 13 4 17 0 l 117 0 b 135 17 131 0 135 4 l 135 193 b 117 210 135 206 131 210 l 31 210 b 13 193 17 210 13 206 z "},",":{"ha":153,"x_min":0,"x_max":0,"o":"m 15 -200 l 65 -200 b 81 -189 74 -200 78 -197 l 135 -3 b 140 31 139 10 140 18 l 140 193 b 124 211 140 207 136 211 l 31 211 b 13 193 17 211 13 207 l 13 17 b 31 0 13 4 17 0 l 51 0 b 60 -11 60 0 63 -3 l 7 -189 b 15 -200 4 -197 7 -200 z "},":":{"ha":151,"x_min":0,"x_max":0,"o":"m 14 193 l 14 17 b 32 0 14 4 18 0 l 118 0 b 136 17 132 0 136 4 l 136 193 b 118 210 136 206 132 210 l 32 210 b 14 193 18 210 14 206 z m 14 814 l 14 638 b 32 621 14 625 18 621 l 118 621 b 136 638 132 621 136 625 l 136 814 b 118 831 136 826 132 831 l 32 831 b 14 814 18 831 14 826 z "},";":{"ha":158,"x_min":0,"x_max":0,"o":"m 17 -200 l 67 -200 b 82 -189 75 -200 79 -197 l 136 -3 b 142 31 140 10 142 18 l 142 193 b 125 211 142 207 138 211 l 32 211 b 14 193 18 211 14 207 l 14 17 b 32 0 14 4 18 0 l 53 0 b 61 -11 61 0 64 -3 l 8 -189 b 17 -200 6 -197 8 -200 z m 14 813 l 14 636 b 32 619 14 624 18 619 l 118 619 b 136 636 132 619 136 624 l 136 813 b 118 829 136 825 132 829 l 32 829 b 14 813 18 829 14 825 z "},"!":{"ha":193,"x_min":0,"x_max":0,"o":"m 142 290 l 153 738 b 154 772 153 751 153 760 l 156 1094 b 139 1111 157 1107 151 1111 l 53 1111 b 36 1094 40 1111 36 1107 l 38 772 b 39 738 39 760 39 751 l 49 290 b 67 274 49 278 53 274 l 124 274 b 142 290 138 274 142 278 z m 157 17 l 157 194 b 140 211 157 207 153 211 l 51 211 b 35 194 39 211 35 207 l 35 17 b 51 0 35 4 39 0 l 140 0 b 157 17 153 0 157 4 z "},"¡":{"ha":188,"x_min":0,"x_max":0,"o":"m 154 249 l 143 696 b 125 713 143 708 139 713 l 68 713 b 50 696 54 713 50 708 l 40 249 b 39 214 40 235 40 226 l 38 -108 b 54 -125 38 -121 42 -125 l 140 -125 b 157 -108 153 -125 158 -121 l 156 214 b 154 249 154 226 154 235 z m 158 792 l 158 969 b 142 986 158 982 154 986 l 53 986 b 36 969 40 986 36 982 l 36 792 b 53 775 36 779 40 775 l 142 775 b 158 792 154 775 158 779 z "},"?":{"ha":338,"x_min":0,"x_max":0,"o":"m 132 275 l 188 275 b 206 292 200 275 204 279 l 211 426 b 233 500 213 461 218 479 l 256 531 b 286 571 268 544 276 556 b 325 847 317 621 326 635 b 279 1086 324 1015 318 1047 b 174 1118 261 1106 228 1117 b 67 1086 126 1119 86 1107 b 14 763 31 1051 21 1032 b 31 746 13 750 17 746 l 111 746 b 128 763 124 746 128 750 b 147 990 135 967 136 981 b 171 1000 151 996 163 1000 b 196 990 181 1000 190 996 b 210 839 207 981 210 950 b 189 647 210 689 203 671 b 168 621 185 640 178 632 b 133 576 156 607 143 594 b 106 436 113 546 106 511 b 114 292 106 407 110 338 b 132 275 114 279 119 275 z m 118 0 l 204 0 b 221 17 217 0 221 4 l 221 196 b 204 214 221 210 217 214 l 118 214 b 100 196 106 214 100 210 l 100 17 b 118 0 100 4 106 0 z "},"¿":{"ha":311,"x_min":0,"x_max":0,"o":"m 179 714 l 124 714 b 106 697 111 714 107 710 l 100 563 b 78 489 99 528 93 510 l 56 458 b 25 418 43 444 35 433 b -14 142 -6 368 -15 354 b 32 -97 -12 -26 -7 -58 b 138 -129 50 -117 83 -128 b 244 -97 185 -131 225 -118 b 297 226 281 -62 290 -43 b 281 243 299 239 294 243 l 200 243 b 183 226 188 243 183 239 b 164 -1 176 22 175 8 b 140 -11 160 -7 149 -11 b 115 -1 131 -11 121 -7 b 101 150 104 8 101 39 b 122 342 101 300 108 318 b 143 368 126 349 133 357 b 178 413 156 382 168 394 b 206 553 199 443 206 478 b 197 697 206 582 201 651 b 179 714 197 710 192 714 z m 193 989 l 107 989 b 90 972 94 989 90 985 l 90 793 b 107 775 90 779 94 775 l 193 775 b 211 793 206 775 211 779 l 211 972 b 193 989 211 985 206 989 z "},"•":{"ha":225,"x_min":0,"x_max":0,"o":"m 113 413 b 211 511 168 413 211 458 b 113 610 211 567 168 610 b 14 511 60 610 14 567 b 113 413 14 458 60 413 z "},"*":{"ha":344,"x_min":0,"x_max":0,"o":"m 108 756 l 167 846 b 178 846 171 853 174 853 l 235 756 b 257 751 242 744 247 743 l 311 793 b 314 817 321 801 322 807 l 242 899 b 246 910 236 904 238 908 l 339 939 b 350 960 351 942 354 947 l 325 1022 b 303 1031 319 1035 314 1036 l 224 992 b 215 997 217 988 214 989 l 225 1097 b 210 1114 226 1110 222 1114 l 132 1114 b 117 1097 119 1114 115 1110 l 126 997 b 118 992 128 989 125 988 l 42 1031 b 19 1022 29 1036 24 1033 l -7 958 b 3 938 -11 947 -10 942 l 96 908 b 100 897 104 907 106 904 l 28 817 b 31 793 19 807 21 801 l 86 751 b 108 756 96 743 101 744 z "},"/":{"ha":174,"x_min":0,"x_max":0,"o":"m 176 1167 l 113 1167 b 100 1156 104 1167 101 1164 l -14 -219 b -3 -231 -14 -228 -11 -231 l 61 -231 b 74 -219 69 -231 72 -228 l 188 1156 b 176 1167 188 1164 185 1167 z "},"\\":{"ha":174,"x_min":0,"x_max":0,"o":"m 61 1167 l -3 1167 b -14 1156 -11 1167 -14 1164 l 100 -219 b 113 -231 101 -228 104 -231 l 176 -231 b 188 -219 185 -231 188 -228 l 74 1156 b 61 1167 72 1164 69 1167 z "},"-":{"ha":263,"x_min":0,"x_max":0,"o":"m 15 575 l 15 481 b 33 464 15 468 21 464 l 231 464 b 249 481 243 464 249 468 l 247 575 b 229 592 247 588 242 592 l 33 592 b 15 575 21 592 15 588 z "},"–":{"ha":325,"x_min":0,"x_max":0,"o":"m 15 632 l 15 538 b 33 521 15 525 21 521 l 293 521 b 310 538 306 521 310 525 b 310 632 311 568 311 603 b 293 650 310 644 306 650 l 33 650 b 15 632 21 650 15 644 z "},"—":{"ha":679,"x_min":0,"x_max":0,"o":"m 15 575 l 15 481 b 33 464 15 468 21 464 l 647 464 b 664 481 660 464 664 468 l 664 575 b 647 592 664 588 660 592 l 33 592 b 15 575 21 592 15 588 z "},"(":{"ha":193,"x_min":0,"x_max":0,"o":"m 89 -222 l 149 -222 b 164 -206 161 -222 165 -218 b 140 449 151 -49 140 179 b 164 1094 140 672 150 939 b 149 1111 165 1107 161 1111 l 89 1111 b 75 1100 81 1111 76 1108 b 25 449 39 901 25 696 b 75 -211 25 193 39 -14 b 89 -222 76 -219 81 -222 z "},")":{"ha":193,"x_min":0,"x_max":0,"o":"m 104 1111 l 44 1111 b 29 1094 32 1111 28 1107 b 53 440 42 938 53 710 b 29 -206 53 217 43 -50 b 44 -222 28 -218 32 -222 l 104 -222 b 118 -211 113 -222 117 -219 b 168 440 154 -12 168 193 b 118 1100 168 696 154 903 b 104 1111 117 1108 113 1111 z "},"{":{"ha":232,"x_min":0,"x_max":0,"o":"m 188 -235 l 199 -235 b 217 -218 213 -235 217 -231 l 217 -157 b 199 -140 217 -144 213 -140 l 206 -140 b 160 -68 168 -140 156 -118 l 185 268 b 135 451 192 351 181 403 b 133 499 117 467 117 482 b 183 679 181 553 192 601 l 160 932 b 206 1018 154 986 167 1018 l 199 1018 b 217 1035 213 1018 217 1022 l 217 1094 b 199 1111 217 1107 213 1111 l 189 1111 b 53 944 81 1111 43 1054 l 81 640 b 31 519 88 563 63 540 b 15 493 19 513 15 506 l 15 457 b 31 431 15 443 19 438 b 81 306 63 410 86 385 l 53 -81 b 188 -235 46 -189 82 -235 z "},"}":{"ha":232,"x_min":0,"x_max":0,"o":"m 33 -235 l 44 -235 b 179 -81 150 -235 186 -189 l 151 306 b 201 431 146 385 169 410 b 217 457 213 438 217 443 l 217 493 b 201 519 217 506 213 513 b 151 640 169 540 144 563 l 179 944 b 43 1111 189 1054 151 1111 l 33 1111 b 15 1094 19 1111 15 1107 l 15 1035 b 33 1018 15 1022 19 1018 l 26 1018 b 72 932 65 1018 78 986 l 49 679 b 99 499 40 601 51 553 b 97 451 115 482 115 467 b 47 268 51 403 40 351 l 72 -68 b 26 -140 76 -118 64 -140 l 33 -140 b 15 -157 19 -140 15 -144 l 15 -218 b 33 -235 15 -231 19 -235 z "},"[":{"ha":197,"x_min":0,"x_max":0,"o":"m 181 -210 l 181 -150 b 164 -132 181 -137 176 -132 l 139 -132 b 128 -121 131 -132 128 -129 l 128 1003 b 139 1014 128 1011 131 1014 l 164 1014 b 181 1032 176 1014 181 1018 l 181 1094 b 164 1111 181 1107 176 1111 l 51 1111 b 35 1094 39 1111 35 1107 l 35 -210 b 51 -226 35 -222 39 -226 l 164 -226 b 181 -210 176 -226 181 -222 z "},"]":{"ha":197,"x_min":0,"x_max":0,"o":"m 17 -150 l 17 -210 b 33 -226 17 -222 21 -226 l 146 -226 b 163 -210 158 -226 163 -222 l 163 1094 b 146 1111 163 1107 158 1111 l 33 1111 b 17 1094 21 1111 17 1107 l 17 1032 b 33 1014 17 1018 21 1014 l 58 1014 b 69 1003 67 1014 69 1011 l 69 -121 b 58 -132 69 -129 67 -132 l 33 -132 b 17 -150 21 -132 17 -137 z "},"“":{"ha":299,"x_min":0,"x_max":0,"o":"m 129 1110 l 79 1110 b 64 1099 71 1110 67 1107 l 10 913 b 4 879 6 900 4 892 l 4 717 b 21 699 4 703 8 699 l 114 699 b 132 717 128 699 132 703 l 132 893 b 114 910 132 906 128 910 l 93 910 b 85 921 85 910 82 913 l 138 1099 b 129 1110 140 1107 138 1110 z m 283 1110 l 233 1110 b 218 1099 225 1110 221 1107 l 164 913 b 158 879 160 900 158 892 l 158 717 b 175 699 158 703 163 699 l 268 699 b 286 717 282 699 286 703 l 286 893 b 268 910 286 906 282 910 l 247 910 b 239 921 239 910 236 913 l 292 1099 b 283 1110 294 1107 292 1110 z "},"”":{"ha":304,"x_min":0,"x_max":0,"o":"m 175 700 l 225 700 b 240 711 233 700 238 703 l 294 897 b 300 931 299 910 300 918 l 300 1093 b 283 1111 300 1107 296 1111 l 190 1111 b 172 1093 176 1111 172 1107 l 172 917 b 190 900 172 904 176 900 l 211 900 b 219 889 219 900 222 897 l 167 711 b 175 700 164 703 167 700 z m 21 700 l 71 700 b 86 711 79 700 83 703 l 140 897 b 146 931 144 910 146 918 l 146 1093 b 129 1111 146 1107 142 1111 l 36 1111 b 18 1093 22 1111 18 1107 l 18 917 b 36 900 18 904 22 900 l 57 900 b 65 889 65 900 68 897 l 13 711 b 21 700 10 703 13 700 z "},"‘":{"ha":144,"x_min":0,"x_max":0,"o":"m 129 1110 l 79 1110 b 64 1099 71 1110 67 1107 l 10 913 b 4 879 6 900 4 892 l 4 717 b 21 699 4 703 8 699 l 114 699 b 132 717 128 699 132 703 l 132 893 b 114 910 132 906 128 910 l 93 910 b 85 921 85 910 82 913 l 138 1099 b 129 1110 140 1107 138 1110 z "},"’":{"ha":144,"x_min":0,"x_max":0,"o":"m 15 699 l 65 699 b 81 710 74 699 78 701 l 135 896 b 140 929 139 908 140 917 l 140 1092 b 124 1110 140 1106 136 1110 l 31 1110 b 13 1092 17 1110 13 1106 l 13 915 b 31 899 13 903 17 899 l 51 899 b 60 888 60 899 63 896 l 7 710 b 15 699 4 701 7 699 z "},"\"":{"ha":239,"x_min":0,"x_max":0,"o":"m 92 1111 l 35 1111 b 18 1094 22 1111 18 1107 l 18 964 l 18 929 l 24 732 b 40 715 24 719 28 715 l 85 715 b 103 732 97 715 101 719 l 108 929 l 108 964 l 108 1094 b 92 1111 108 1107 104 1111 z m 204 1110 l 147 1110 b 131 1093 135 1110 131 1106 l 131 963 l 131 928 l 136 731 b 153 714 136 718 140 714 l 197 714 b 215 731 210 714 214 718 l 221 928 l 221 963 l 221 1093 b 204 1110 221 1106 217 1110 z "},"'":{"ha":131,"x_min":0,"x_max":0,"o":"m 96 1111 l 36 1111 b 19 1094 24 1111 19 1107 l 19 964 l 19 929 l 25 732 b 42 715 25 719 29 715 l 89 715 b 107 732 101 715 106 719 l 113 929 l 113 964 l 113 1094 b 96 1111 113 1107 108 1111 z "},"@":{"ha":504,"x_min":0,"x_max":0,"o":"m 256 -125 b 392 -110 300 -125 346 -121 b 399 -101 396 -108 399 -106 l 399 -83 b 389 -76 399 -78 394 -75 b 256 -93 347 -90 303 -93 b 103 -54 186 -93 135 -86 b 63 504 72 -24 63 29 b 104 1047 63 967 74 1017 b 256 1088 136 1079 188 1088 b 406 1047 322 1088 374 1079 b 443 506 436 1017 443 967 b 404 21 443 46 432 21 b 383 56 390 21 383 28 l 385 554 l 385 965 b 367 983 383 979 379 983 l 315 983 b 297 965 303 983 299 979 l 297 956 b 274 947 296 932 289 929 b 199 997 247 979 228 997 b 150 976 179 997 163 990 b 114 488 115 938 114 915 b 149 11 114 67 115 47 b 196 -8 161 -1 178 -8 b 263 17 219 -8 238 -6 b 289 40 274 26 282 40 b 301 28 294 40 297 36 b 383 -14 317 1 332 -14 b 476 506 468 -14 476 3 b 428 1071 476 968 465 1032 b 256 1118 392 1107 328 1118 b 81 1069 181 1118 117 1107 b 29 504 43 1031 29 968 b 79 -78 29 24 42 -37 b 256 -125 115 -114 179 -125 z m 243 115 b 228 121 239 115 233 117 b 218 490 221 129 218 138 b 228 864 218 844 218 854 b 243 871 232 869 238 871 b 269 857 254 871 263 864 b 282 489 281 840 282 822 b 265 128 282 153 282 151 b 243 115 261 121 251 115 z "},"&":{"ha":371,"x_min":0,"x_max":0,"o":"m 126 -11 b 238 44 157 -11 185 -1 b 249 40 243 50 246 49 l 254 11 b 268 0 256 3 260 0 l 346 -1 b 357 10 354 -1 357 1 l 324 288 l 353 706 b 343 717 354 714 351 717 l 263 717 b 250 706 254 717 251 714 l 238 526 l 186 738 b 158 924 167 817 158 839 b 169 997 158 965 161 988 b 192 1004 175 1003 183 1004 b 213 997 199 1004 207 1003 b 229 847 221 989 221 975 b 247 831 229 835 233 831 l 325 831 b 340 847 338 831 342 835 b 299 1086 333 1029 326 1058 b 190 1118 276 1108 239 1118 b 81 1085 140 1118 104 1108 b 44 914 53 1057 44 1025 b 88 647 44 788 57 757 b 83 628 90 640 89 635 b 14 339 28 563 14 525 b 54 18 14 72 22 50 b 126 -11 75 -4 104 -11 z m 160 106 b 142 111 153 106 147 107 b 126 343 132 121 126 133 b 138 478 126 458 131 471 b 153 465 144 486 150 478 l 219 167 b 215 147 221 158 221 153 b 160 106 179 108 165 106 z "},"©":{"ha":500,"x_min":0,"x_max":0,"o":"m 251 -15 b 408 32 324 -15 378 1 b 469 561 446 71 469 133 b 408 1076 469 974 446 1038 b 251 1125 378 1108 322 1125 b 93 1076 178 1125 124 1108 b 32 560 56 1038 32 974 b 93 32 32 133 56 72 b 251 -15 125 1 179 -15 z m 251 19 b 119 58 190 19 144 33 b 67 560 89 88 67 140 b 119 1050 67 971 89 1021 b 251 1090 146 1076 192 1090 b 383 1050 311 1090 357 1076 b 435 561 414 1021 435 971 b 385 58 435 140 414 86 b 251 19 360 33 313 19 z m 253 72 b 351 101 299 72 333 82 b 385 476 381 132 382 144 b 369 493 386 489 382 493 l 301 493 b 286 476 289 493 286 489 b 271 193 281 200 281 203 b 253 186 267 189 260 186 b 232 193 244 186 238 189 b 221 569 224 203 221 211 b 232 918 221 896 222 908 b 253 926 238 924 244 926 b 272 918 261 926 268 924 b 286 660 281 910 282 900 b 301 643 286 647 289 643 l 369 643 b 385 660 382 643 386 647 b 351 1007 382 954 382 976 b 253 1036 333 1026 300 1036 b 154 1006 208 1036 174 1026 b 117 569 121 971 117 946 b 154 103 117 154 124 135 b 253 72 172 83 206 72 z "},"®":{"ha":292,"x_min":0,"x_max":0,"o":"m 149 651 b 239 682 197 651 224 667 b 278 886 265 708 278 764 b 239 1090 278 1013 264 1065 b 149 1119 222 1106 197 1119 b 54 1090 96 1119 71 1107 b 15 886 29 1063 15 1010 b 54 682 15 765 29 710 b 149 651 71 667 96 651 z m 149 685 b 81 704 110 685 92 692 b 50 886 61 724 50 771 b 79 1068 50 1006 60 1049 b 149 1088 92 1079 110 1088 b 214 1068 183 1088 201 1079 b 244 886 233 1049 244 1004 b 215 706 244 771 235 725 b 149 685 203 693 185 685 z m 93 726 l 119 726 b 128 735 124 726 128 731 l 128 847 l 144 847 b 160 842 150 847 156 844 b 167 807 164 836 167 826 l 167 733 b 172 726 167 729 169 726 l 201 726 b 210 736 207 726 210 729 l 210 810 b 197 867 210 839 207 856 b 189 878 193 871 189 874 b 200 893 189 882 194 885 b 214 957 208 904 214 922 b 196 1039 214 1010 208 1026 b 150 1053 186 1049 169 1053 l 93 1053 b 85 1044 85 1053 85 1049 l 85 735 b 93 726 85 731 86 726 z m 142 897 l 128 897 l 128 1007 l 147 1007 b 164 1000 154 1007 160 1004 b 169 957 168 994 169 981 b 158 906 169 921 164 911 b 142 897 156 903 150 897 z "},"™":{"ha":218,"x_min":0,"x_max":0,"o":"m 29 797 l 56 797 b 60 800 58 797 60 799 l 58 1079 l 81 1078 b 83 1082 83 1078 83 1079 l 83 1108 b 81 1111 83 1110 83 1111 l 4 1111 b 1 1108 3 1111 1 1110 l 1 1082 b 3 1078 1 1079 1 1078 l 28 1079 l 25 800 b 29 797 25 799 26 797 z m 97 797 l 117 797 b 119 800 118 797 119 799 l 119 1056 b 121 1060 119 1058 119 1060 b 122 1056 122 1060 122 1058 l 131 800 b 135 797 131 799 132 797 l 161 797 b 164 800 164 797 164 799 b 174 1056 167 860 171 932 b 175 1060 174 1058 174 1060 b 178 1056 178 1060 178 1058 l 178 800 b 181 797 178 799 178 797 l 206 797 b 207 800 207 797 207 799 l 207 1108 b 206 1111 207 1110 207 1111 l 167 1111 b 163 1108 163 1111 163 1110 l 154 868 b 153 865 154 867 154 865 b 151 868 151 865 151 867 l 144 1107 b 142 1111 144 1110 144 1111 l 97 1111 b 94 1108 96 1111 94 1110 l 94 800 b 97 797 94 799 96 797 z "},"$":{"ha":335,"x_min":0,"x_max":0,"o":"m 160 -62 l 193 -62 b 210 -46 206 -62 210 -58 l 208 11 b 276 36 242 14 264 24 b 318 299 303 63 318 93 b 267 572 318 492 313 521 b 210 622 253 586 231 604 b 164 665 193 635 174 651 b 136 846 138 696 136 707 b 146 983 136 943 136 974 b 172 993 153 990 161 993 b 196 985 182 993 190 990 b 210 747 206 975 206 947 b 228 731 210 735 215 731 l 303 731 b 319 747 315 731 319 735 b 281 1078 317 1021 308 1049 b 206 1106 265 1092 240 1101 l 207 1165 b 190 1183 208 1179 204 1183 l 157 1183 b 140 1165 144 1183 140 1179 l 142 1106 b 65 1078 106 1101 79 1092 b 24 851 38 1053 24 1014 b 81 567 24 654 35 621 b 135 517 94 550 115 533 b 176 478 150 503 165 492 b 206 292 200 449 204 428 b 193 129 207 163 206 140 b 168 121 188 124 179 121 b 143 131 157 121 149 125 b 128 399 132 142 131 167 b 110 415 126 410 122 415 l 35 415 b 18 399 22 415 18 410 b 63 39 22 100 33 65 b 143 10 76 24 103 13 l 143 -46 b 160 -62 143 -58 147 -62 z "},"¥":{"ha":342,"x_min":0,"x_max":0,"o":"m 15 542 l 15 464 b 32 447 15 451 19 447 l 103 447 l 110 404 l 32 404 b 15 386 19 404 15 400 l 15 308 b 32 292 15 296 19 292 l 113 292 l 113 18 b 131 0 113 6 117 1 b 213 0 154 -1 188 -1 b 231 18 226 1 231 6 l 229 292 l 311 292 b 328 308 324 292 328 296 l 328 386 b 311 404 328 400 324 404 l 235 404 l 242 447 l 311 447 b 328 464 324 447 328 451 l 328 542 b 311 560 328 556 324 560 l 258 560 b 321 1100 285 749 310 954 b 311 1111 322 1108 319 1111 b 228 1111 283 1113 256 1113 b 217 1100 219 1111 217 1108 b 186 671 210 975 197 792 b 174 672 183 667 175 667 l 138 1100 b 125 1111 138 1108 133 1111 l 39 1111 b 28 1100 31 1111 28 1108 b 88 560 38 950 61 754 l 32 560 b 15 542 19 560 15 556 z "},"+":{"ha":438,"x_min":0,"x_max":0,"o":"m 15 644 l 15 568 b 33 551 15 556 21 551 l 161 551 l 161 342 b 179 325 161 329 165 325 l 260 325 b 278 342 274 325 278 329 l 278 551 l 406 551 b 424 568 419 551 424 556 l 424 644 b 406 663 424 658 419 663 l 278 663 l 278 872 b 260 890 278 886 274 890 l 179 890 b 161 872 165 890 161 886 l 161 663 l 33 663 b 15 644 21 663 15 658 z "},"%":{"ha":551,"x_min":0,"x_max":0,"o":"m 122 532 b 204 551 168 532 193 540 b 240 829 232 576 240 594 b 204 1100 240 1061 232 1074 b 122 1121 192 1111 167 1121 b 39 1100 76 1121 51 1111 b 3 829 11 1074 3 1061 b 40 553 3 594 13 578 b 122 532 53 540 76 532 z m 122 626 b 106 632 115 626 110 628 b 99 829 100 639 99 642 b 107 1021 99 1013 100 1014 b 122 1026 111 1025 115 1026 b 138 1021 128 1026 133 1025 b 146 829 143 1015 146 1013 b 138 632 146 642 143 638 b 122 626 133 628 128 626 z m 482 1111 l 432 1111 b 418 1100 424 1111 419 1108 l 60 11 b 68 0 57 3 60 0 l 118 0 b 132 11 126 0 129 3 l 489 1100 b 482 1111 492 1108 490 1111 z m 431 3 b 513 22 476 3 501 11 b 549 300 540 47 549 65 b 513 571 549 532 540 544 b 431 592 500 582 475 592 b 347 571 385 592 360 582 b 311 300 319 544 311 532 b 349 24 311 65 321 49 b 431 3 361 11 385 3 z m 431 97 b 414 103 424 97 418 99 b 407 300 408 110 407 113 b 415 492 407 483 408 485 b 431 497 419 496 424 497 b 446 492 436 497 442 496 b 454 300 451 486 454 483 b 446 103 454 113 451 108 b 431 97 442 99 436 97 z "},"̈":{"ha":0,"x_min":0,"x_max":0,"o":"m 133 1013 l 196 1013 b 213 1029 208 1013 213 1017 l 213 1119 b 196 1136 213 1132 208 1136 l 133 1136 b 117 1119 121 1136 117 1132 l 117 1029 b 133 1013 117 1017 121 1013 z m 13 1013 l 72 1013 b 89 1029 85 1013 89 1017 l 89 1119 b 72 1136 89 1132 85 1136 l 13 1136 b -4 1119 0 1136 -4 1132 l -4 1029 b 13 1013 -4 1017 0 1013 z "},"̇":{"ha":0,"x_min":0,"x_max":0,"o":"m 83 1121 l 18 1121 b 1 1103 6 1121 1 1117 l 1 1032 b 18 1014 1 1019 6 1014 l 83 1014 b 100 1032 96 1014 100 1019 l 100 1103 b 83 1121 100 1117 96 1121 z "},"̀":{"ha":0,"x_min":0,"x_max":0,"o":"m 140 1008 l 94 1150 b 81 1161 93 1158 89 1161 l 1 1161 b -6 1151 -7 1161 -8 1158 l 56 1008 b 71 997 58 1000 63 997 l 133 997 b 140 1008 142 997 143 1000 z "},"́":{"ha":0,"x_min":0,"x_max":0,"o":"m 10 997 l 72 997 b 89 1008 81 997 85 1000 l 156 1151 b 149 1161 158 1158 157 1161 l 71 1161 b 56 1150 63 1161 60 1158 l 1 1008 b 10 997 -1 1000 1 997 z "},"̋":{"ha":0,"x_min":0,"x_max":0,"o":"m 10 997 l 72 997 b 86 1008 81 997 85 1000 l 129 1150 b 121 1161 131 1158 129 1161 l 47 1161 b 33 1150 39 1161 35 1158 l 0 1008 b 10 997 -1 1000 1 997 z m 106 997 l 168 997 b 183 1008 176 997 181 1000 l 239 1151 b 232 1161 243 1158 240 1161 l 157 1161 b 142 1150 149 1161 144 1158 l 99 1008 b 106 997 96 1000 97 997 z "},"̂":{"ha":0,"x_min":0,"x_max":0,"o":"m 54 1150 l 3 1007 b 10 996 0 999 1 996 l 78 996 b 93 1007 86 996 90 999 l 111 1064 l 129 1007 b 144 996 132 999 136 996 l 211 996 b 219 1007 219 996 222 999 l 167 1150 b 151 1161 164 1158 160 1161 l 69 1161 b 54 1150 61 1161 57 1158 z "},"̌":{"ha":0,"x_min":0,"x_max":0,"o":"m 3 1150 l 54 1007 b 69 996 57 999 61 996 l 151 996 b 167 1007 160 996 164 999 l 219 1150 b 211 1161 222 1158 219 1161 l 144 1161 b 129 1150 136 1161 132 1158 l 111 1093 l 93 1150 b 78 1161 90 1158 86 1161 l 10 1161 b 3 1150 1 1161 0 1158 z "},"̆":{"ha":0,"x_min":0,"x_max":0,"o":"m 113 990 b 222 1085 167 990 208 1022 b 207 1101 224 1097 221 1101 l 146 1101 b 128 1085 133 1101 128 1097 b 113 1061 125 1064 121 1061 b 99 1085 107 1061 101 1065 b 79 1101 97 1097 92 1101 l 17 1101 b 1 1085 4 1101 0 1097 b 113 990 14 1024 53 990 z "},"̊":{"ha":0,"x_min":0,"x_max":0,"o":"m 94 985 b 190 1089 156 985 190 1026 b 94 1193 190 1150 156 1193 b 0 1089 35 1193 0 1149 b 94 985 0 1028 35 985 z m 96 1044 b 76 1089 82 1044 76 1054 b 96 1131 76 1121 82 1131 b 114 1089 108 1131 114 1121 b 96 1044 114 1054 108 1044 z "},"̃":{"ha":0,"x_min":0,"x_max":0,"o":"m 150 999 b 204 1019 172 999 192 1008 b 211 1040 210 1026 211 1032 l 211 1104 b 203 1107 211 1113 210 1114 b 153 1082 182 1086 174 1082 b 114 1093 142 1082 128 1088 b 63 1108 100 1100 82 1108 b 7 1085 40 1108 19 1099 b 0 1065 1 1079 0 1074 l 0 999 b 7 996 0 990 1 990 b 57 1024 31 1021 39 1024 b 100 1013 71 1024 85 1018 b 150 999 114 1006 131 999 z "},"̄":{"ha":0,"x_min":0,"x_max":0,"o":"m 207 1088 l 17 1088 b 0 1071 4 1088 0 1083 l 0 1024 b 17 1007 0 1011 4 1007 l 207 1007 b 224 1024 219 1007 224 1011 l 224 1071 b 207 1088 224 1083 219 1088 z "},"̒":{"ha":0,"x_min":0,"x_max":0,"o":"m 78 1257 l 33 1257 b 19 1246 25 1257 21 1254 l -11 1111 b -15 1076 -14 1099 -15 1090 l -15 1019 b 1 1001 -15 1006 -11 1001 l 76 1001 b 93 1019 89 1001 93 1006 l 93 1099 b 76 1115 93 1111 89 1115 l 53 1115 l 86 1246 b 78 1257 88 1254 86 1257 z "},"̦":{"ha":0,"x_min":0,"x_max":0,"o":"m 15 -312 l 60 -312 b 74 -301 68 -312 72 -310 l 104 -167 b 108 -132 107 -154 108 -146 l 108 -75 b 92 -57 108 -61 104 -57 l 17 -57 b 0 -75 4 -57 0 -61 l 0 -154 b 17 -171 0 -167 4 -171 l 40 -171 l 7 -301 b 15 -312 6 -310 7 -312 z "},"̧":{"ha":0,"x_min":0,"x_max":0,"o":"m 103 10 l 40 10 b 26 -1 32 10 28 7 l -18 -181 b -10 -192 -21 -189 -18 -192 l 63 -192 b 76 -181 71 -192 75 -189 l 111 -1 b 103 10 114 7 111 10 z "},"̨":{"ha":0,"x_min":0,"x_max":0,"o":"m 72 -164 l 92 -164 b 108 -147 104 -164 108 -160 l 108 -101 b 92 -83 108 -87 104 -83 l 88 -83 b 67 -64 72 -83 67 -76 b 100 0 67 -40 79 -25 l 85 32 b -18 -87 24 -1 -18 -28 b 72 -164 -18 -142 21 -164 z "},"̵":{"ha":0,"x_min":0,"x_max":0,"o":"m 17 390 l 157 390 b 174 408 169 390 174 396 l 174 469 b 157 488 174 482 169 488 l 17 488 b 0 469 4 488 0 482 l 0 407 b 17 390 0 394 4 390 z "},"̷":{"ha":0,"x_min":0,"x_max":0,"o":"m -17 328 l -17 247 b -7 243 -17 239 -14 238 l 157 374 b 167 392 164 378 167 383 l 167 471 b 157 475 167 479 164 481 l -7 346 b -17 328 -14 342 -17 336 z "},"̸":{"ha":0,"x_min":0,"x_max":0,"o":"m 124 1113 l 90 1113 b 78 1101 82 1113 79 1110 l -17 -124 b -7 -135 -18 -132 -15 -135 l 28 -135 b 40 -124 36 -135 39 -132 l 135 1101 b 124 1113 135 1110 132 1113 z "},"¨":{"ha":204,"x_min":0,"x_max":0,"o":"m 133 1013 l 196 1013 b 213 1029 208 1013 213 1017 l 213 1119 b 196 1136 213 1132 208 1136 l 133 1136 b 117 1119 121 1136 117 1132 l 117 1029 b 133 1013 117 1017 121 1013 z m 13 1013 l 72 1013 b 89 1029 85 1013 89 1017 l 89 1119 b 72 1136 89 1132 85 1136 l 13 1136 b -4 1119 0 1136 -4 1132 l -4 1029 b 13 1013 -4 1017 0 1013 z "},"˙":{"ha":100,"x_min":0,"x_max":0,"o":"m 83 1121 l 18 1121 b 1 1103 6 1121 1 1117 l 1 1032 b 18 1014 1 1019 6 1014 l 83 1014 b 100 1032 96 1014 100 1019 l 100 1103 b 83 1121 100 1117 96 1121 z "},"`":{"ha":142,"x_min":0,"x_max":0,"o":"m 140 1008 l 94 1150 b 81 1161 93 1158 89 1161 l 1 1161 b -6 1151 -7 1161 -8 1158 l 56 1008 b 71 997 58 1000 63 997 l 133 997 b 140 1008 142 997 143 1000 z "},"´":{"ha":144,"x_min":0,"x_max":0,"o":"m 10 997 l 72 997 b 89 1008 81 997 85 1000 l 156 1151 b 149 1161 158 1158 157 1161 l 71 1161 b 56 1150 63 1161 60 1158 l 1 1008 b 10 997 -1 1000 1 997 z "},"˝":{"ha":242,"x_min":0,"x_max":0,"o":"m 10 997 l 72 997 b 86 1008 81 997 85 1000 l 129 1150 b 121 1161 131 1158 129 1161 l 47 1161 b 33 1150 39 1161 35 1158 l 0 1008 b 10 997 -1 1000 1 997 z m 106 997 l 168 997 b 183 1008 176 997 181 1000 l 239 1151 b 232 1161 243 1158 240 1161 l 157 1161 b 142 1150 149 1161 144 1158 l 99 1008 b 106 997 96 1000 97 997 z "},"ˆ":{"ha":221,"x_min":0,"x_max":0,"o":"m 54 1150 l 3 1007 b 10 996 0 999 1 996 l 78 996 b 93 1007 86 996 90 999 l 111 1064 l 129 1007 b 144 996 132 999 136 996 l 211 996 b 219 1007 219 996 222 999 l 167 1150 b 151 1161 164 1158 160 1161 l 69 1161 b 54 1150 61 1161 57 1158 z "},"ˇ":{"ha":221,"x_min":0,"x_max":0,"o":"m 3 1150 l 54 1007 b 69 996 57 999 61 996 l 151 996 b 167 1007 160 996 164 999 l 219 1150 b 211 1161 222 1158 219 1161 l 144 1161 b 129 1150 136 1161 132 1158 l 111 1093 l 93 1150 b 78 1161 90 1158 86 1161 l 10 1161 b 3 1150 1 1161 0 1158 z "},"˘":{"ha":222,"x_min":0,"x_max":0,"o":"m 113 990 b 222 1085 167 990 208 1022 b 207 1101 224 1097 221 1101 l 146 1101 b 128 1085 133 1101 128 1097 b 113 1061 125 1064 121 1061 b 99 1085 107 1061 101 1065 b 79 1101 97 1097 92 1101 l 17 1101 b 1 1085 4 1101 0 1097 b 113 990 14 1024 53 990 z "},"˚":{"ha":189,"x_min":0,"x_max":0,"o":"m 94 985 b 190 1089 156 985 190 1026 b 94 1193 190 1150 156 1193 b 0 1089 35 1193 0 1149 b 94 985 0 1028 35 985 z m 96 1044 b 76 1089 82 1044 76 1054 b 96 1131 76 1121 82 1131 b 114 1089 108 1131 114 1121 b 96 1044 114 1054 108 1044 z "},"˜":{"ha":210,"x_min":0,"x_max":0,"o":"m 150 999 b 204 1019 172 999 192 1008 b 211 1040 210 1026 211 1032 l 211 1104 b 203 1107 211 1113 210 1114 b 153 1082 182 1086 174 1082 b 114 1093 142 1082 128 1088 b 63 1108 100 1100 82 1108 b 7 1085 40 1108 19 1099 b 0 1065 1 1079 0 1074 l 0 999 b 7 996 0 990 1 990 b 57 1024 31 1021 39 1024 b 100 1013 71 1024 85 1018 b 150 999 114 1006 131 999 z "},"¯":{"ha":222,"x_min":0,"x_max":0,"o":"m 207 1088 l 17 1088 b 0 1071 4 1088 0 1083 l 0 1024 b 17 1007 0 1011 4 1007 l 207 1007 b 224 1024 219 1007 224 1011 l 224 1071 b 207 1088 224 1083 219 1088 z "},"¸":{"ha":94,"x_min":0,"x_max":0,"o":"m 103 10 l 40 10 b 26 -1 32 10 28 7 l -18 -181 b -10 -192 -21 -189 -18 -192 l 63 -192 b 76 -181 71 -192 75 -189 l 111 -1 b 103 10 114 7 111 10 z "},"˛":{"ha":104,"x_min":0,"x_max":0,"o":"m 72 -164 l 92 -164 b 108 -147 104 -164 108 -160 l 108 -101 b 92 -83 108 -87 104 -83 l 88 -83 b 67 -64 72 -83 67 -76 b 100 0 67 -40 79 -25 l 85 32 b -18 -87 24 -1 -18 -28 b 72 -164 -18 -142 21 -164 z "},"⁄":{"ha":60,"x_min":0,"x_max":0,"o":"m 236 1111 l 186 1111 b 172 1100 178 1111 174 1108 l -186 11 b -178 0 -189 3 -186 0 l -128 0 b -114 11 -119 0 -117 3 l 243 1100 b 236 1111 246 1108 244 1111 z "}}}
